G75*
%MOIN*%
%OFA0B0*%
%FSLAX24Y24*%
%IPPOS*%
%LPD*%
%AMOC8*
5,1,8,0,0,1.08239X$1,22.5*
%
%ADD10C,0.0600*%
%ADD11OC8,0.0600*%
%ADD12C,0.0520*%
%ADD13C,0.0520*%
%ADD14OC8,0.0520*%
%ADD15OC8,0.0630*%
%ADD16C,0.0160*%
%ADD17C,0.0320*%
%ADD18R,0.0396X0.0396*%
%ADD19C,0.0400*%
D10*
X001850Y004375D02*
X002450Y004375D01*
X002450Y005375D02*
X001850Y005375D01*
X001850Y006375D02*
X002450Y006375D01*
X002450Y007375D02*
X001850Y007375D01*
X001850Y008375D02*
X002450Y008375D01*
X002450Y009375D02*
X001850Y009375D01*
X001850Y010375D02*
X002450Y010375D01*
X002450Y011375D02*
X001850Y011375D01*
X008850Y004800D02*
X008850Y004200D01*
X009850Y004200D02*
X009850Y004800D01*
X010850Y004800D02*
X010850Y004200D01*
X011850Y004200D02*
X011850Y004800D01*
X015100Y004800D02*
X015100Y004200D01*
X016100Y004200D02*
X016100Y004800D01*
X029350Y004375D02*
X029950Y004375D01*
X029950Y005375D02*
X029350Y005375D01*
X029350Y006375D02*
X029950Y006375D01*
X029950Y007375D02*
X029350Y007375D01*
X029350Y008375D02*
X029950Y008375D01*
X029950Y009375D02*
X029350Y009375D01*
X029350Y010375D02*
X029950Y010375D01*
X029950Y011375D02*
X029350Y011375D01*
X029350Y021375D02*
X029950Y021375D01*
X029950Y022375D02*
X029350Y022375D01*
X029350Y023375D02*
X029950Y023375D01*
X029950Y024375D02*
X029350Y024375D01*
X029350Y025375D02*
X029950Y025375D01*
X029950Y026375D02*
X029350Y026375D01*
X029350Y027375D02*
X029950Y027375D01*
X029950Y028375D02*
X029350Y028375D01*
X019400Y030675D02*
X019400Y031275D01*
X018400Y031275D02*
X018400Y030675D01*
X017400Y030675D02*
X017400Y031275D01*
X016400Y031275D02*
X016400Y030675D01*
X015400Y030675D02*
X015400Y031275D01*
X014400Y031275D02*
X014400Y030675D01*
X013400Y030675D02*
X013400Y031275D01*
X012400Y031275D02*
X012400Y030675D01*
X002450Y028375D02*
X001850Y028375D01*
X001850Y027375D02*
X002450Y027375D01*
X002450Y026375D02*
X001850Y026375D01*
X001850Y025375D02*
X002450Y025375D01*
X002450Y024375D02*
X001850Y024375D01*
X001850Y023375D02*
X002450Y023375D01*
X002450Y022375D02*
X001850Y022375D01*
X001850Y021375D02*
X002450Y021375D01*
D11*
X003475Y008375D03*
X004475Y008375D03*
X004475Y007375D03*
X003475Y007375D03*
X027350Y007375D03*
X027350Y006375D03*
X027350Y005375D03*
X027350Y004375D03*
X028350Y004375D03*
X028350Y005375D03*
X028350Y006375D03*
X028350Y007375D03*
X028350Y008375D03*
X028350Y009375D03*
X028350Y010375D03*
X028350Y011375D03*
X027350Y011375D03*
X027350Y010375D03*
X027350Y009375D03*
X027350Y008375D03*
X027350Y021375D03*
X027350Y022375D03*
X028350Y022375D03*
X028350Y021375D03*
D12*
X025225Y019260D02*
X025225Y018740D01*
X025225Y015260D02*
X025225Y014740D01*
X023735Y014125D02*
X023215Y014125D01*
X023215Y011750D02*
X023735Y011750D01*
X023735Y009375D02*
X023215Y009375D01*
X019735Y009375D02*
X019215Y009375D01*
X019215Y011750D02*
X019735Y011750D01*
X017610Y013375D02*
X017090Y013375D01*
X017090Y014375D02*
X017610Y014375D01*
X017610Y015375D02*
X017090Y015375D01*
X017090Y016375D02*
X017610Y016375D01*
X017610Y017375D02*
X017090Y017375D01*
X017090Y018375D02*
X017610Y018375D01*
X017610Y019375D02*
X017090Y019375D01*
X017090Y020375D02*
X017610Y020375D01*
X017610Y021375D02*
X017090Y021375D01*
X017090Y022375D02*
X017610Y022375D01*
X017610Y023375D02*
X017090Y023375D01*
X017090Y024375D02*
X017610Y024375D01*
X017610Y025375D02*
X017090Y025375D01*
X017090Y026375D02*
X017610Y026375D01*
X014610Y026375D02*
X014090Y026375D01*
X014090Y025375D02*
X014610Y025375D01*
X014610Y024375D02*
X014090Y024375D01*
X014090Y023375D02*
X014610Y023375D01*
X014610Y022375D02*
X014090Y022375D01*
X014090Y021375D02*
X014610Y021375D01*
X014610Y020375D02*
X014090Y020375D01*
X014090Y019375D02*
X014610Y019375D01*
X014610Y018375D02*
X014090Y018375D01*
X014090Y017375D02*
X014610Y017375D01*
X014610Y016375D02*
X014090Y016375D01*
X014090Y015375D02*
X014610Y015375D01*
X014610Y014375D02*
X014090Y014375D01*
X014090Y013375D02*
X014610Y013375D01*
X019215Y014125D02*
X019735Y014125D01*
X011735Y018250D02*
X011215Y018250D01*
X007735Y018250D02*
X007215Y018250D01*
D13*
X019975Y019125D03*
X020975Y019125D03*
X021975Y019125D03*
X022975Y019125D03*
X022975Y022125D03*
X021975Y022125D03*
X020975Y022125D03*
X019975Y022125D03*
X022350Y025500D03*
X023350Y025500D03*
X024350Y025500D03*
X025350Y025500D03*
X025350Y028500D03*
X024350Y028500D03*
X023350Y028500D03*
X022350Y028500D03*
D14*
X027350Y029250D03*
X027350Y025250D03*
X011600Y015750D03*
X011600Y013250D03*
X011600Y011125D03*
X011600Y008750D03*
X013225Y008750D03*
X012850Y006875D03*
X008850Y006875D03*
X007600Y008750D03*
X007600Y011125D03*
X007600Y013250D03*
X007600Y015750D03*
X004475Y015500D03*
X004475Y017125D03*
X004475Y021125D03*
X004475Y011500D03*
X017225Y008750D03*
X019475Y006750D03*
X019725Y004125D03*
X018725Y004125D03*
X022100Y004125D03*
X023475Y006750D03*
X026100Y004125D03*
D15*
X022975Y015750D03*
X022975Y016750D03*
X020975Y024250D03*
X019975Y024250D03*
X011475Y021500D03*
X011475Y020500D03*
X008850Y020500D03*
X008850Y021500D03*
D16*
X001981Y003339D02*
X001918Y003105D01*
X029882Y003105D01*
X029819Y003339D01*
X029819Y003611D01*
X029855Y003745D01*
X029225Y003745D01*
X028993Y003841D01*
X028989Y003845D01*
X028711Y003845D01*
X028611Y003745D01*
X028089Y003745D01*
X027850Y003984D01*
X027611Y003745D01*
X027089Y003745D01*
X026720Y004114D01*
X026720Y004636D01*
X026959Y004875D01*
X026720Y005114D01*
X026720Y005636D01*
X026959Y005875D01*
X026720Y006114D01*
X026720Y006636D01*
X026959Y006875D01*
X026720Y007114D01*
X026720Y007636D01*
X026959Y007875D01*
X026720Y008114D01*
X026720Y008636D01*
X026959Y008875D01*
X026720Y009114D01*
X026720Y009636D01*
X026959Y009875D01*
X026720Y010114D01*
X026720Y010636D01*
X026959Y010875D01*
X026720Y011114D01*
X026720Y011636D01*
X026860Y011776D01*
X026860Y012347D01*
X026586Y012347D01*
X026494Y012385D01*
X017753Y012385D01*
X017572Y012460D01*
X017247Y012785D01*
X017008Y012785D01*
X018265Y011528D01*
X018340Y011347D01*
X018340Y009578D01*
X018625Y009293D01*
X018625Y009492D01*
X018715Y009709D01*
X018881Y009875D01*
X019098Y009965D01*
X019852Y009965D01*
X020069Y009875D01*
X020235Y009709D01*
X020325Y009492D01*
X020325Y009258D01*
X020235Y009041D01*
X020069Y008875D01*
X019852Y008785D01*
X019133Y008785D01*
X019140Y008778D01*
X019215Y008597D01*
X019215Y007324D01*
X019231Y007340D01*
X019719Y007340D01*
X020065Y006994D01*
X020065Y006506D01*
X019719Y006160D01*
X019231Y006160D01*
X019215Y006176D01*
X019215Y004469D01*
X019225Y004459D01*
X019481Y004715D01*
X019969Y004715D01*
X020069Y004615D01*
X021756Y004615D01*
X021856Y004715D01*
X022344Y004715D01*
X022690Y004369D01*
X022690Y003881D01*
X022344Y003535D01*
X021856Y003535D01*
X021756Y003635D01*
X020069Y003635D01*
X019969Y003535D01*
X019481Y003535D01*
X019225Y003791D01*
X018969Y003535D01*
X018481Y003535D01*
X018135Y003881D01*
X018135Y004369D01*
X018235Y004469D01*
X018235Y008297D01*
X017815Y008717D01*
X017815Y008506D01*
X017469Y008160D01*
X016981Y008160D01*
X016635Y008506D01*
X016635Y008994D01*
X016981Y009340D01*
X017360Y009340D01*
X017360Y011047D01*
X015822Y012585D01*
X015685Y012722D01*
X015610Y012903D01*
X015610Y016222D01*
X015677Y016385D01*
X015200Y016385D01*
X015200Y016258D01*
X015110Y016041D01*
X014944Y015875D01*
X015110Y015709D01*
X015200Y015492D01*
X015200Y015258D01*
X015110Y015041D01*
X014944Y014875D01*
X015110Y014709D01*
X015200Y014492D01*
X015200Y014258D01*
X015110Y014041D01*
X014944Y013875D01*
X015110Y013709D01*
X015200Y013492D01*
X015200Y013258D01*
X015110Y013041D01*
X014944Y012875D01*
X014727Y012785D01*
X013973Y012785D01*
X013756Y012875D01*
X013590Y013041D01*
X013500Y013258D01*
X013500Y013492D01*
X013590Y013709D01*
X013756Y013875D01*
X013590Y014041D01*
X013500Y014258D01*
X013500Y014492D01*
X013590Y014709D01*
X013756Y014875D01*
X013590Y015041D01*
X013515Y015222D01*
X012965Y014672D01*
X012965Y012028D01*
X012890Y011847D01*
X012190Y011147D01*
X012190Y010881D01*
X012049Y010740D01*
X012147Y010740D01*
X012447Y011040D01*
X012447Y011139D01*
X012497Y011260D01*
X012590Y011353D01*
X012711Y011403D01*
X013239Y011403D01*
X013360Y011353D01*
X013453Y011260D01*
X013503Y011139D01*
X013503Y010611D01*
X013453Y010490D01*
X013360Y010397D01*
X013239Y010347D01*
X013140Y010347D01*
X012765Y009972D01*
X012765Y009972D01*
X012628Y009835D01*
X012447Y009760D01*
X009878Y009760D01*
X009697Y009835D01*
X008947Y010585D01*
X008810Y010722D01*
X008735Y010903D01*
X008735Y015894D01*
X008697Y015986D01*
X008697Y016510D01*
X007553Y016510D01*
X007090Y016047D01*
X007090Y011778D01*
X007015Y011597D01*
X006878Y011460D01*
X004965Y009547D01*
X004965Y008776D01*
X005105Y008636D01*
X005105Y008114D01*
X004866Y007875D01*
X005105Y007636D01*
X005105Y007114D01*
X004736Y006745D01*
X004214Y006745D01*
X003975Y006984D01*
X003736Y006745D01*
X003214Y006745D01*
X003114Y006845D01*
X002871Y006845D01*
X002984Y006732D01*
X003080Y006500D01*
X003080Y006250D01*
X002984Y006018D01*
X002841Y005875D01*
X002984Y005732D01*
X003080Y005500D01*
X003080Y005250D01*
X002984Y005018D01*
X002807Y004841D01*
X002689Y004792D01*
X002702Y004786D01*
X002763Y004741D01*
X002816Y004688D01*
X002861Y004627D01*
X002895Y004559D01*
X002918Y004487D01*
X002930Y004413D01*
X002930Y004395D01*
X002170Y004395D01*
X002170Y004355D01*
X002930Y004355D01*
X002930Y004337D01*
X002918Y004263D01*
X002895Y004191D01*
X002861Y004123D01*
X002816Y004062D01*
X002763Y004009D01*
X002702Y003964D01*
X002634Y003930D01*
X002562Y003907D01*
X002488Y003895D01*
X002170Y003895D01*
X002170Y004355D01*
X002130Y004355D01*
X002130Y003895D01*
X001898Y003895D01*
X001911Y003873D01*
X001981Y003611D01*
X001981Y003339D01*
X001981Y003418D02*
X029819Y003418D01*
X029819Y003576D02*
X022385Y003576D01*
X022544Y003735D02*
X025868Y003735D01*
X025918Y003685D02*
X025660Y003943D01*
X025660Y004125D01*
X026100Y004125D01*
X026540Y004125D01*
X026540Y004307D01*
X026282Y004565D01*
X026100Y004565D01*
X026100Y004125D01*
X026100Y004125D01*
X026100Y004125D01*
X026540Y004125D01*
X026540Y003943D01*
X026282Y003685D01*
X026100Y003685D01*
X026100Y004125D01*
X026100Y004125D01*
X026100Y004125D01*
X026100Y004565D01*
X025918Y004565D01*
X025660Y004307D01*
X025660Y004125D01*
X026100Y004125D01*
X026100Y003685D01*
X025918Y003685D01*
X026100Y003735D02*
X026100Y003735D01*
X026100Y003893D02*
X026100Y003893D01*
X026100Y004052D02*
X026100Y004052D01*
X026100Y004210D02*
X026100Y004210D01*
X026100Y004369D02*
X026100Y004369D01*
X026100Y004527D02*
X026100Y004527D01*
X026320Y004527D02*
X026720Y004527D01*
X026720Y004369D02*
X026479Y004369D01*
X026540Y004210D02*
X026720Y004210D01*
X026783Y004052D02*
X026540Y004052D01*
X026490Y003893D02*
X026941Y003893D01*
X026332Y003735D02*
X029852Y003735D01*
X029840Y003259D02*
X001960Y003259D01*
X001981Y003576D02*
X008710Y003576D01*
X008725Y003570D02*
X008975Y003570D01*
X009207Y003666D01*
X009350Y003809D01*
X009493Y003666D01*
X009725Y003570D01*
X009975Y003570D01*
X010207Y003666D01*
X010350Y003809D01*
X010493Y003666D01*
X010725Y003570D01*
X010975Y003570D01*
X011207Y003666D01*
X011350Y003809D01*
X011493Y003666D01*
X011725Y003570D01*
X011975Y003570D01*
X012207Y003666D01*
X012384Y003843D01*
X012480Y004075D01*
X012480Y004925D01*
X012384Y005157D01*
X012207Y005334D01*
X011975Y005430D01*
X011725Y005430D01*
X011493Y005334D01*
X011350Y005191D01*
X011207Y005334D01*
X010975Y005430D01*
X010725Y005430D01*
X010493Y005334D01*
X010350Y005191D01*
X010215Y005326D01*
X010215Y009097D01*
X010140Y009278D01*
X008190Y011228D01*
X008190Y011369D01*
X007844Y011715D01*
X007356Y011715D01*
X007010Y011369D01*
X007010Y010881D01*
X007356Y010535D01*
X007497Y010535D01*
X009235Y008797D01*
X009235Y007324D01*
X009094Y007465D01*
X008606Y007465D01*
X008260Y007119D01*
X008260Y006631D01*
X008360Y006531D01*
X008360Y005201D01*
X008316Y005157D01*
X008220Y004925D01*
X008220Y004075D01*
X008316Y003843D01*
X008493Y003666D01*
X008725Y003570D01*
X008990Y003576D02*
X009710Y003576D01*
X009990Y003576D02*
X010710Y003576D01*
X010990Y003576D02*
X011710Y003576D01*
X011990Y003576D02*
X014960Y003576D01*
X014975Y003570D02*
X015225Y003570D01*
X015457Y003666D01*
X015600Y003809D01*
X015743Y003666D01*
X015975Y003570D01*
X016225Y003570D01*
X016457Y003666D01*
X016634Y003843D01*
X016730Y004075D01*
X016730Y004925D01*
X016634Y005157D01*
X016457Y005334D01*
X016225Y005430D01*
X015975Y005430D01*
X015743Y005334D01*
X015600Y005191D01*
X015457Y005334D01*
X015400Y005357D01*
X016378Y006335D01*
X016515Y006472D01*
X016590Y006653D01*
X016590Y010144D01*
X016628Y010236D01*
X016628Y010764D01*
X016578Y010885D01*
X016485Y010978D01*
X016364Y011028D01*
X015836Y011028D01*
X015715Y010978D01*
X015622Y010885D01*
X015572Y010764D01*
X015572Y010236D01*
X015610Y010144D01*
X015610Y006953D01*
X014060Y005403D01*
X013961Y005403D01*
X013840Y005353D01*
X013747Y005260D01*
X013697Y005139D01*
X013697Y004611D01*
X013747Y004490D01*
X013840Y004397D01*
X013961Y004347D01*
X014470Y004347D01*
X014470Y004075D01*
X014566Y003843D01*
X014743Y003666D01*
X014975Y003570D01*
X015240Y003576D02*
X015960Y003576D01*
X016240Y003576D02*
X018440Y003576D01*
X018281Y003735D02*
X016525Y003735D01*
X016655Y003893D02*
X018135Y003893D01*
X018135Y004052D02*
X016720Y004052D01*
X016730Y004210D02*
X018135Y004210D01*
X018135Y004369D02*
X016730Y004369D01*
X016730Y004527D02*
X018235Y004527D01*
X018235Y004686D02*
X016730Y004686D01*
X016730Y004844D02*
X018235Y004844D01*
X018235Y005003D02*
X016698Y005003D01*
X016630Y005161D02*
X018235Y005161D01*
X018235Y005320D02*
X016471Y005320D01*
X015729Y005320D02*
X015471Y005320D01*
X015521Y005478D02*
X018235Y005478D01*
X018235Y005637D02*
X015679Y005637D01*
X015838Y005795D02*
X018235Y005795D01*
X018235Y005954D02*
X015996Y005954D01*
X016155Y006112D02*
X018235Y006112D01*
X018235Y006271D02*
X016313Y006271D01*
X016472Y006429D02*
X018235Y006429D01*
X018235Y006588D02*
X016563Y006588D01*
X016590Y006746D02*
X018235Y006746D01*
X018235Y006905D02*
X016590Y006905D01*
X016590Y007063D02*
X018235Y007063D01*
X018235Y007222D02*
X016590Y007222D01*
X016590Y007380D02*
X018235Y007380D01*
X018235Y007539D02*
X016590Y007539D01*
X016590Y007697D02*
X018235Y007697D01*
X018235Y007856D02*
X016590Y007856D01*
X016590Y008014D02*
X018235Y008014D01*
X018235Y008173D02*
X017482Y008173D01*
X017640Y008331D02*
X018201Y008331D01*
X018043Y008490D02*
X017799Y008490D01*
X017815Y008648D02*
X017884Y008648D01*
X016968Y008173D02*
X016590Y008173D01*
X016590Y008331D02*
X016810Y008331D01*
X016651Y008490D02*
X016590Y008490D01*
X016590Y008648D02*
X016635Y008648D01*
X016635Y008807D02*
X016590Y008807D01*
X016590Y008965D02*
X016635Y008965D01*
X016590Y009124D02*
X016764Y009124D01*
X016923Y009282D02*
X016590Y009282D01*
X016590Y009441D02*
X017360Y009441D01*
X017360Y009599D02*
X016590Y009599D01*
X016590Y009758D02*
X017360Y009758D01*
X017360Y009916D02*
X016590Y009916D01*
X016590Y010075D02*
X017360Y010075D01*
X017360Y010233D02*
X016627Y010233D01*
X016628Y010392D02*
X017360Y010392D01*
X017360Y010550D02*
X016628Y010550D01*
X016628Y010709D02*
X017360Y010709D01*
X017360Y010867D02*
X016585Y010867D01*
X016370Y011026D02*
X017360Y011026D01*
X017223Y011184D02*
X013484Y011184D01*
X013503Y011026D02*
X015830Y011026D01*
X015615Y010867D02*
X013503Y010867D01*
X013503Y010709D02*
X015572Y010709D01*
X015572Y010550D02*
X013478Y010550D01*
X013346Y010392D02*
X015572Y010392D01*
X015573Y010233D02*
X013026Y010233D01*
X012867Y010075D02*
X015610Y010075D01*
X015610Y009916D02*
X012709Y009916D01*
X012981Y009340D02*
X012881Y009240D01*
X011944Y009240D01*
X011844Y009340D01*
X011356Y009340D01*
X011010Y008994D01*
X011010Y008506D01*
X011356Y008160D01*
X011844Y008160D01*
X011944Y008260D01*
X012881Y008260D01*
X012981Y008160D01*
X013469Y008160D01*
X013815Y008506D01*
X013815Y008994D01*
X013469Y009340D01*
X012981Y009340D01*
X012923Y009282D02*
X011902Y009282D01*
X011298Y009282D02*
X010136Y009282D01*
X010204Y009124D02*
X011139Y009124D01*
X011010Y008965D02*
X010215Y008965D01*
X010215Y008807D02*
X011010Y008807D01*
X011010Y008648D02*
X010215Y008648D01*
X010215Y008490D02*
X011026Y008490D01*
X011185Y008331D02*
X010215Y008331D01*
X010215Y008173D02*
X011343Y008173D01*
X011857Y008173D02*
X012968Y008173D01*
X013482Y008173D02*
X015610Y008173D01*
X015610Y008331D02*
X013640Y008331D01*
X013799Y008490D02*
X015610Y008490D01*
X015610Y008648D02*
X013815Y008648D01*
X013815Y008807D02*
X015610Y008807D01*
X015610Y008965D02*
X013815Y008965D01*
X013686Y009124D02*
X015610Y009124D01*
X015610Y009282D02*
X013527Y009282D01*
X013094Y007465D02*
X012606Y007465D01*
X012260Y007119D01*
X012260Y006631D01*
X012606Y006285D01*
X013094Y006285D01*
X013440Y006631D01*
X013440Y007119D01*
X013094Y007465D01*
X013179Y007380D02*
X015610Y007380D01*
X015610Y007222D02*
X013338Y007222D01*
X013440Y007063D02*
X015610Y007063D01*
X015562Y006905D02*
X013440Y006905D01*
X013440Y006746D02*
X015403Y006746D01*
X015245Y006588D02*
X013397Y006588D01*
X013238Y006429D02*
X015086Y006429D01*
X014928Y006271D02*
X010215Y006271D01*
X010215Y006429D02*
X012462Y006429D01*
X012303Y006588D02*
X010215Y006588D01*
X010215Y006746D02*
X012260Y006746D01*
X012260Y006905D02*
X010215Y006905D01*
X010215Y007063D02*
X012260Y007063D01*
X012362Y007222D02*
X010215Y007222D01*
X010215Y007380D02*
X012521Y007380D01*
X014294Y005637D02*
X010215Y005637D01*
X010215Y005795D02*
X014452Y005795D01*
X014611Y005954D02*
X010215Y005954D01*
X010215Y006112D02*
X014769Y006112D01*
X014135Y005478D02*
X010215Y005478D01*
X010221Y005320D02*
X010479Y005320D01*
X011221Y005320D02*
X011479Y005320D01*
X012221Y005320D02*
X013807Y005320D01*
X013706Y005161D02*
X012380Y005161D01*
X012448Y005003D02*
X013697Y005003D01*
X013697Y004844D02*
X012480Y004844D01*
X012480Y004686D02*
X013697Y004686D01*
X013732Y004527D02*
X012480Y004527D01*
X012480Y004369D02*
X013909Y004369D01*
X014470Y004210D02*
X012480Y004210D01*
X012470Y004052D02*
X014480Y004052D01*
X014545Y003893D02*
X012405Y003893D01*
X012275Y003735D02*
X014675Y003735D01*
X015525Y003735D02*
X015675Y003735D01*
X019010Y003576D02*
X019440Y003576D01*
X019281Y003735D02*
X019169Y003735D01*
X019215Y004527D02*
X019293Y004527D01*
X019215Y004686D02*
X019451Y004686D01*
X019215Y004844D02*
X026928Y004844D01*
X026832Y005003D02*
X019215Y005003D01*
X019215Y005161D02*
X026720Y005161D01*
X026720Y005320D02*
X019215Y005320D01*
X019215Y005478D02*
X026720Y005478D01*
X026721Y005637D02*
X019215Y005637D01*
X019215Y005795D02*
X026879Y005795D01*
X026881Y005954D02*
X019215Y005954D01*
X019215Y006112D02*
X026722Y006112D01*
X026720Y006271D02*
X019830Y006271D01*
X019988Y006429D02*
X023174Y006429D01*
X023293Y006310D02*
X023035Y006568D01*
X023035Y006750D01*
X023475Y006750D01*
X023915Y006750D01*
X023915Y006932D01*
X023657Y007190D01*
X023475Y007190D01*
X023475Y006750D01*
X023475Y006750D01*
X023475Y006750D01*
X023915Y006750D01*
X023915Y006568D01*
X023657Y006310D01*
X023475Y006310D01*
X023475Y006750D01*
X023475Y006750D01*
X023475Y006750D01*
X023475Y007190D01*
X023293Y007190D01*
X023035Y006932D01*
X023035Y006750D01*
X023475Y006750D01*
X023475Y006310D01*
X023293Y006310D01*
X023475Y006429D02*
X023475Y006429D01*
X023475Y006588D02*
X023475Y006588D01*
X023475Y006746D02*
X023475Y006746D01*
X023475Y006905D02*
X023475Y006905D01*
X023475Y007063D02*
X023475Y007063D01*
X023784Y007063D02*
X026771Y007063D01*
X026720Y007222D02*
X019838Y007222D01*
X019996Y007063D02*
X023166Y007063D01*
X023035Y006905D02*
X020065Y006905D01*
X020065Y006746D02*
X023035Y006746D01*
X023035Y006588D02*
X020065Y006588D01*
X019215Y007380D02*
X026720Y007380D01*
X026720Y007539D02*
X019215Y007539D01*
X019215Y007697D02*
X026781Y007697D01*
X026940Y007856D02*
X019215Y007856D01*
X019215Y008014D02*
X026820Y008014D01*
X026720Y008173D02*
X019215Y008173D01*
X019215Y008331D02*
X026720Y008331D01*
X026720Y008490D02*
X019215Y008490D01*
X019194Y008648D02*
X026732Y008648D01*
X026891Y008807D02*
X019904Y008807D01*
X020159Y008965D02*
X023053Y008965D01*
X023046Y008967D02*
X023112Y008946D01*
X023180Y008935D01*
X023475Y008935D01*
X023770Y008935D01*
X023838Y008946D01*
X023904Y008967D01*
X023966Y008999D01*
X024022Y009039D01*
X024071Y009088D01*
X024111Y009144D01*
X024143Y009206D01*
X024164Y009272D01*
X024175Y009340D01*
X024175Y009375D01*
X024175Y009410D01*
X024164Y009478D01*
X024143Y009544D01*
X024111Y009606D01*
X024071Y009662D01*
X024022Y009711D01*
X023966Y009751D01*
X023904Y009783D01*
X023838Y009804D01*
X023770Y009815D01*
X023475Y009815D01*
X023475Y009375D01*
X023475Y009375D01*
X024175Y009375D01*
X023475Y009375D01*
X023475Y009375D01*
X023475Y008935D01*
X023475Y009375D01*
X023475Y009375D01*
X023475Y009375D01*
X022775Y009375D01*
X022775Y009410D01*
X022786Y009478D01*
X022807Y009544D01*
X022839Y009606D01*
X022879Y009662D01*
X022928Y009711D01*
X022984Y009751D01*
X023046Y009783D01*
X023112Y009804D01*
X023180Y009815D01*
X023475Y009815D01*
X023475Y009375D01*
X022775Y009375D01*
X022775Y009340D01*
X022786Y009272D01*
X022807Y009206D01*
X022839Y009144D01*
X022879Y009088D01*
X022928Y009039D01*
X022984Y008999D01*
X023046Y008967D01*
X022854Y009124D02*
X020269Y009124D01*
X020325Y009282D02*
X022784Y009282D01*
X022780Y009441D02*
X020325Y009441D01*
X020281Y009599D02*
X022835Y009599D01*
X022997Y009758D02*
X020187Y009758D01*
X019971Y009916D02*
X026918Y009916D01*
X026842Y009758D02*
X023953Y009758D01*
X024115Y009599D02*
X026720Y009599D01*
X026720Y009441D02*
X024170Y009441D01*
X024166Y009282D02*
X026720Y009282D01*
X026720Y009124D02*
X024096Y009124D01*
X023897Y008965D02*
X026869Y008965D01*
X026760Y010075D02*
X018340Y010075D01*
X018340Y010233D02*
X026720Y010233D01*
X026720Y010392D02*
X018340Y010392D01*
X018340Y010550D02*
X026720Y010550D01*
X026793Y010709D02*
X018340Y010709D01*
X018340Y010867D02*
X026951Y010867D01*
X026809Y011026D02*
X018340Y011026D01*
X018340Y011184D02*
X019040Y011184D01*
X019098Y011160D02*
X019852Y011160D01*
X020069Y011250D01*
X020235Y011416D01*
X020325Y011633D01*
X020325Y011867D01*
X020235Y012084D01*
X020069Y012250D01*
X019852Y012340D01*
X019098Y012340D01*
X018881Y012250D01*
X018715Y012084D01*
X018625Y011867D01*
X018625Y011633D01*
X018715Y011416D01*
X018881Y011250D01*
X019098Y011160D01*
X018788Y011343D02*
X018340Y011343D01*
X018276Y011501D02*
X018680Y011501D01*
X018625Y011660D02*
X018133Y011660D01*
X017975Y011818D02*
X018625Y011818D01*
X018670Y011977D02*
X017816Y011977D01*
X017658Y012135D02*
X018766Y012135D01*
X018985Y012294D02*
X017499Y012294D01*
X017591Y012452D02*
X017341Y012452D01*
X017422Y012611D02*
X017182Y012611D01*
X017263Y012769D02*
X017024Y012769D01*
X016431Y011977D02*
X012944Y011977D01*
X012965Y012135D02*
X016272Y012135D01*
X016114Y012294D02*
X012965Y012294D01*
X012965Y012452D02*
X015955Y012452D01*
X015797Y012611D02*
X012965Y012611D01*
X012965Y012769D02*
X015665Y012769D01*
X015610Y012928D02*
X014997Y012928D01*
X015129Y013086D02*
X015610Y013086D01*
X015610Y013245D02*
X015195Y013245D01*
X015200Y013403D02*
X015610Y013403D01*
X015610Y013562D02*
X015171Y013562D01*
X015099Y013720D02*
X015610Y013720D01*
X015610Y013879D02*
X014948Y013879D01*
X015106Y014037D02*
X015610Y014037D01*
X015610Y014196D02*
X015174Y014196D01*
X015200Y014354D02*
X015610Y014354D01*
X015610Y014513D02*
X015192Y014513D01*
X015126Y014671D02*
X015610Y014671D01*
X015610Y014830D02*
X014990Y014830D01*
X015057Y014988D02*
X015610Y014988D01*
X015610Y015147D02*
X015154Y015147D01*
X015200Y015305D02*
X015610Y015305D01*
X015610Y015464D02*
X015200Y015464D01*
X015146Y015622D02*
X015610Y015622D01*
X015610Y015781D02*
X015039Y015781D01*
X015008Y015939D02*
X015610Y015939D01*
X015610Y016098D02*
X015134Y016098D01*
X015199Y016256D02*
X015624Y016256D01*
X016225Y016875D02*
X018975Y016875D01*
X018692Y016465D02*
X018985Y016172D01*
X018985Y014668D01*
X018881Y014625D01*
X018715Y014459D01*
X018625Y014242D01*
X018625Y014008D01*
X018715Y013791D01*
X018881Y013625D01*
X019098Y013535D01*
X019852Y013535D01*
X020069Y013625D01*
X020235Y013791D01*
X020325Y014008D01*
X020325Y014242D01*
X020235Y014459D01*
X020069Y014625D01*
X019965Y014668D01*
X019965Y015942D01*
X021447Y014460D01*
X021628Y014385D01*
X022860Y014385D01*
X022839Y014356D01*
X022807Y014294D01*
X022786Y014228D01*
X022775Y014160D01*
X022775Y014125D01*
X023475Y014125D01*
X023475Y013685D01*
X023770Y013685D01*
X023838Y013696D01*
X023904Y013717D01*
X023966Y013749D01*
X024022Y013789D01*
X024071Y013838D01*
X024111Y013894D01*
X024143Y013956D01*
X024157Y014000D01*
X024792Y013365D01*
X018200Y013365D01*
X018200Y013492D01*
X018110Y013709D01*
X017944Y013875D01*
X018110Y014041D01*
X018200Y014258D01*
X018200Y014492D01*
X018110Y014709D01*
X017944Y014875D01*
X018110Y015041D01*
X018200Y015258D01*
X018200Y015492D01*
X018110Y015709D01*
X017944Y015875D01*
X018110Y016041D01*
X018200Y016258D01*
X018200Y016465D01*
X018692Y016465D01*
X018743Y016415D02*
X018200Y016415D01*
X018199Y016256D02*
X018901Y016256D01*
X018985Y016098D02*
X018134Y016098D01*
X018008Y015939D02*
X018985Y015939D01*
X018985Y015781D02*
X018039Y015781D01*
X018146Y015622D02*
X018985Y015622D01*
X018985Y015464D02*
X018200Y015464D01*
X018200Y015305D02*
X018985Y015305D01*
X018985Y015147D02*
X018154Y015147D01*
X018057Y014988D02*
X018985Y014988D01*
X018985Y014830D02*
X017990Y014830D01*
X018126Y014671D02*
X018985Y014671D01*
X018768Y014513D02*
X018192Y014513D01*
X018200Y014354D02*
X018671Y014354D01*
X018625Y014196D02*
X018174Y014196D01*
X018106Y014037D02*
X018625Y014037D01*
X018678Y013879D02*
X017948Y013879D01*
X018099Y013720D02*
X018786Y013720D01*
X019034Y013562D02*
X018171Y013562D01*
X018200Y013403D02*
X024754Y013403D01*
X024596Y013562D02*
X019916Y013562D01*
X020164Y013720D02*
X023041Y013720D01*
X023046Y013717D02*
X023112Y013696D01*
X023180Y013685D01*
X023475Y013685D01*
X023475Y014125D01*
X023475Y014125D01*
X023475Y014125D01*
X022775Y014125D01*
X022775Y014090D01*
X022786Y014022D01*
X022807Y013956D01*
X022839Y013894D01*
X022879Y013838D01*
X022928Y013789D01*
X022984Y013749D01*
X023046Y013717D01*
X022850Y013879D02*
X020272Y013879D01*
X020325Y014037D02*
X022783Y014037D01*
X022781Y014196D02*
X020325Y014196D01*
X020279Y014354D02*
X022838Y014354D01*
X023475Y014037D02*
X023475Y014037D01*
X023475Y013879D02*
X023475Y013879D01*
X023475Y013720D02*
X023475Y013720D01*
X023909Y013720D02*
X024437Y013720D01*
X024279Y013879D02*
X024100Y013879D01*
X024635Y014908D02*
X024390Y015153D01*
X024253Y015290D01*
X024072Y015365D01*
X023290Y015365D01*
X023470Y015545D01*
X023470Y015750D01*
X023470Y015812D01*
X023572Y015710D01*
X023753Y015635D01*
X024766Y015635D01*
X024725Y015594D01*
X024635Y015377D01*
X024635Y014908D01*
X024635Y014988D02*
X024555Y014988D01*
X024635Y015147D02*
X024396Y015147D01*
X024217Y015305D02*
X024635Y015305D01*
X024671Y015464D02*
X023389Y015464D01*
X023470Y015622D02*
X024753Y015622D01*
X023725Y016250D02*
X022100Y016250D01*
X022247Y015781D02*
X022480Y015781D01*
X022480Y015750D02*
X022975Y015750D01*
X023470Y015750D01*
X022975Y015750D01*
X022975Y015750D01*
X022975Y015750D01*
X022480Y015750D01*
X022480Y015840D01*
X022383Y015840D01*
X022378Y015835D01*
X022197Y015760D01*
X021697Y015760D01*
X021533Y015760D01*
X021928Y015365D01*
X022660Y015365D01*
X022480Y015545D01*
X022480Y015750D01*
X022480Y015622D02*
X021671Y015622D01*
X021829Y015464D02*
X022561Y015464D01*
X023470Y015781D02*
X023502Y015781D01*
X021395Y014513D02*
X020182Y014513D01*
X019965Y014671D02*
X021236Y014671D01*
X021078Y014830D02*
X019965Y014830D01*
X019965Y014988D02*
X020919Y014988D01*
X020761Y015147D02*
X019965Y015147D01*
X019965Y015305D02*
X020602Y015305D01*
X020444Y015464D02*
X019965Y015464D01*
X019965Y015622D02*
X020285Y015622D01*
X020127Y015781D02*
X019965Y015781D01*
X019965Y015939D02*
X019968Y015939D01*
X018725Y017875D02*
X016475Y017875D01*
X016100Y018250D01*
X016725Y019875D02*
X016600Y020000D01*
X016600Y021125D01*
X014350Y023375D01*
X013756Y022875D02*
X013590Y022709D01*
X013500Y022492D01*
X013500Y022258D01*
X013590Y022041D01*
X013756Y021875D01*
X013590Y021709D01*
X013500Y021492D01*
X013500Y021258D01*
X013590Y021041D01*
X013756Y020875D01*
X013590Y020709D01*
X013500Y020492D01*
X013500Y020258D01*
X013590Y020041D01*
X013756Y019875D01*
X013953Y019793D01*
X013921Y019783D01*
X013859Y019751D01*
X013803Y019711D01*
X013754Y019662D01*
X013714Y019606D01*
X013682Y019544D01*
X013661Y019478D01*
X013650Y019410D01*
X013650Y019375D01*
X014350Y019375D01*
X014350Y019375D01*
X013650Y019375D01*
X013650Y019340D01*
X013661Y019272D01*
X013682Y019206D01*
X013714Y019144D01*
X013754Y019088D01*
X013803Y019039D01*
X013859Y018999D01*
X013921Y018967D01*
X013953Y018957D01*
X013756Y018875D01*
X013590Y018709D01*
X013500Y018492D01*
X013500Y018293D01*
X012253Y019540D01*
X012072Y019615D01*
X011878Y019615D01*
X010253Y019615D01*
X010072Y019540D01*
X009935Y019403D01*
X009272Y018740D01*
X008079Y018740D01*
X008069Y018750D01*
X007852Y018840D01*
X007578Y018840D01*
X005065Y021353D01*
X005065Y021369D01*
X004719Y021715D01*
X004231Y021715D01*
X003885Y021369D01*
X003885Y020881D01*
X004231Y020535D01*
X004497Y020535D01*
X006637Y018395D01*
X006625Y018367D01*
X006625Y018343D01*
X004372Y016090D01*
X004231Y016090D01*
X003885Y015744D01*
X003885Y015256D01*
X004231Y014910D01*
X004719Y014910D01*
X005065Y015256D01*
X005065Y015397D01*
X006177Y016509D01*
X006110Y016347D01*
X006110Y012078D01*
X004060Y010028D01*
X003985Y009847D01*
X003985Y008776D01*
X003975Y008766D01*
X003736Y009005D01*
X003214Y009005D01*
X003114Y008905D01*
X002871Y008905D01*
X002984Y009018D01*
X003080Y009250D01*
X003080Y009500D01*
X002984Y009732D01*
X002841Y009875D01*
X002984Y010018D01*
X003080Y010250D01*
X003080Y010500D01*
X002984Y010732D01*
X002841Y010875D01*
X002984Y011018D01*
X003080Y011250D01*
X003080Y011500D01*
X002984Y011732D01*
X002807Y011909D01*
X002575Y012005D01*
X001725Y012005D01*
X001493Y011909D01*
X001316Y011732D01*
X001220Y011500D01*
X001220Y011250D01*
X001316Y011018D01*
X001459Y010875D01*
X001316Y010732D01*
X001220Y010500D01*
X001220Y010250D01*
X001316Y010018D01*
X001459Y009875D01*
X001316Y009732D01*
X001220Y009500D01*
X001220Y009250D01*
X001316Y009018D01*
X001459Y008875D01*
X001316Y008732D01*
X001220Y008500D01*
X001220Y008250D01*
X001316Y008018D01*
X001459Y007875D01*
X001316Y007732D01*
X001220Y007500D01*
X001220Y007250D01*
X001316Y007018D01*
X001459Y006875D01*
X001316Y006732D01*
X001220Y006500D01*
X001220Y006250D01*
X001316Y006018D01*
X001459Y005875D01*
X001316Y005732D01*
X001220Y005500D01*
X001220Y005250D01*
X001316Y005018D01*
X001493Y004841D01*
X001611Y004792D01*
X001598Y004786D01*
X001537Y004741D01*
X001484Y004688D01*
X001439Y004627D01*
X001405Y004559D01*
X001382Y004487D01*
X001372Y004422D01*
X001348Y004436D01*
X001086Y004506D01*
X000814Y004506D01*
X000580Y004443D01*
X000580Y029957D01*
X000814Y029894D01*
X001086Y029894D01*
X001348Y029964D01*
X001583Y030100D01*
X001775Y030292D01*
X001911Y030527D01*
X001981Y030789D01*
X001981Y031061D01*
X001911Y031323D01*
X001785Y031541D01*
X011828Y031541D01*
X011770Y031400D01*
X011770Y030550D01*
X011866Y030318D01*
X012043Y030141D01*
X012275Y030045D01*
X012525Y030045D01*
X012757Y030141D01*
X012900Y030284D01*
X013043Y030141D01*
X013275Y030045D01*
X013525Y030045D01*
X013757Y030141D01*
X013934Y030318D01*
X013983Y030436D01*
X013989Y030423D01*
X014034Y030362D01*
X014087Y030309D01*
X014148Y030264D01*
X014216Y030230D01*
X014288Y030207D01*
X014362Y030195D01*
X014380Y030195D01*
X014380Y030955D01*
X014420Y030955D01*
X014420Y030995D01*
X014880Y030995D01*
X014880Y031313D01*
X014868Y031387D01*
X014845Y031459D01*
X014811Y031527D01*
X014800Y031541D01*
X015000Y031541D01*
X014989Y031527D01*
X014955Y031459D01*
X014932Y031387D01*
X014920Y031313D01*
X014920Y030995D01*
X015380Y030995D01*
X015380Y030955D01*
X015420Y030955D01*
X015420Y030995D01*
X015880Y030995D01*
X015880Y031313D01*
X015868Y031387D01*
X015845Y031459D01*
X015811Y031527D01*
X015800Y031541D01*
X016000Y031541D01*
X015989Y031527D01*
X015955Y031459D01*
X015932Y031387D01*
X015920Y031313D01*
X015920Y030995D01*
X016380Y030995D01*
X016380Y030955D01*
X016420Y030955D01*
X016420Y030195D01*
X016438Y030195D01*
X016512Y030207D01*
X016584Y030230D01*
X016652Y030264D01*
X016713Y030309D01*
X016766Y030362D01*
X016811Y030423D01*
X016817Y030436D01*
X016866Y030318D01*
X017043Y030141D01*
X017275Y030045D01*
X017525Y030045D01*
X017757Y030141D01*
X017900Y030284D01*
X018043Y030141D01*
X018275Y030045D01*
X018525Y030045D01*
X018757Y030141D01*
X018860Y030244D01*
X018860Y026403D01*
X018461Y026403D01*
X018340Y026353D01*
X018272Y026285D01*
X018200Y026285D01*
X018200Y026492D01*
X018110Y026709D01*
X017944Y026875D01*
X017727Y026965D01*
X016973Y026965D01*
X016756Y026875D01*
X016590Y026709D01*
X016500Y026492D01*
X016500Y026365D01*
X015753Y026365D01*
X015572Y026290D01*
X015435Y026153D01*
X015051Y025769D01*
X014944Y025875D01*
X015110Y026041D01*
X015200Y026258D01*
X015200Y026492D01*
X015110Y026709D01*
X014944Y026875D01*
X014727Y026965D01*
X013973Y026965D01*
X013756Y026875D01*
X013590Y026709D01*
X013500Y026492D01*
X013500Y026258D01*
X013590Y026041D01*
X013756Y025875D01*
X013590Y025709D01*
X013500Y025492D01*
X013500Y025258D01*
X013590Y025041D01*
X013756Y024875D01*
X013590Y024709D01*
X013500Y024492D01*
X013500Y024258D01*
X013590Y024041D01*
X013756Y023875D01*
X013590Y023709D01*
X013500Y023492D01*
X013500Y023258D01*
X013590Y023041D01*
X013756Y022875D01*
X013718Y022913D02*
X002879Y022913D01*
X002841Y022875D02*
X002984Y023018D01*
X003080Y023250D01*
X003080Y023500D01*
X002984Y023732D01*
X002841Y023875D01*
X002984Y024018D01*
X003080Y024250D01*
X003080Y024500D01*
X002984Y024732D01*
X002841Y024875D01*
X002984Y025018D01*
X003080Y025250D01*
X003080Y025500D01*
X002984Y025732D01*
X002841Y025875D01*
X002984Y026018D01*
X003080Y026250D01*
X003080Y026500D01*
X002984Y026732D01*
X002841Y026875D01*
X002984Y027018D01*
X003080Y027250D01*
X003080Y027500D01*
X002984Y027732D01*
X002841Y027875D01*
X002984Y028018D01*
X003080Y028250D01*
X003080Y028500D01*
X002984Y028732D01*
X002807Y028909D01*
X002575Y029005D01*
X001725Y029005D01*
X001493Y028909D01*
X001316Y028732D01*
X001220Y028500D01*
X001220Y028250D01*
X001316Y028018D01*
X001459Y027875D01*
X001316Y027732D01*
X001220Y027500D01*
X001220Y027250D01*
X001316Y027018D01*
X001459Y026875D01*
X001316Y026732D01*
X001220Y026500D01*
X001220Y026250D01*
X001316Y026018D01*
X001459Y025875D01*
X001316Y025732D01*
X001220Y025500D01*
X001220Y025250D01*
X001316Y025018D01*
X001459Y024875D01*
X001316Y024732D01*
X001220Y024500D01*
X001220Y024250D01*
X001316Y024018D01*
X001459Y023875D01*
X001316Y023732D01*
X001220Y023500D01*
X001220Y023250D01*
X001316Y023018D01*
X001459Y022875D01*
X001316Y022732D01*
X001220Y022500D01*
X001220Y022250D01*
X001316Y022018D01*
X001459Y021875D01*
X001316Y021732D01*
X001220Y021500D01*
X001220Y021250D01*
X001316Y021018D01*
X001493Y020841D01*
X001725Y020745D01*
X002575Y020745D01*
X002807Y020841D01*
X002984Y021018D01*
X003080Y021250D01*
X003080Y021500D01*
X002984Y021732D01*
X002841Y021875D01*
X002984Y022018D01*
X003080Y022250D01*
X003080Y022500D01*
X002984Y022732D01*
X002841Y022875D01*
X002961Y022755D02*
X013635Y022755D01*
X013543Y022596D02*
X003040Y022596D01*
X003080Y022438D02*
X013500Y022438D01*
X013500Y022279D02*
X003080Y022279D01*
X003027Y022121D02*
X008558Y022121D01*
X008583Y022145D02*
X008205Y021767D01*
X008205Y021233D01*
X008544Y020894D01*
X008355Y020705D01*
X008355Y020500D01*
X008850Y020500D01*
X009345Y020500D01*
X009345Y020705D01*
X009156Y020894D01*
X009495Y021233D01*
X009495Y021767D01*
X009117Y022145D01*
X008583Y022145D01*
X008400Y021962D02*
X002928Y021962D01*
X002912Y021804D02*
X008241Y021804D01*
X008205Y021645D02*
X004789Y021645D01*
X004948Y021487D02*
X008205Y021487D01*
X008205Y021328D02*
X005090Y021328D01*
X005248Y021170D02*
X008268Y021170D01*
X008427Y021011D02*
X005407Y021011D01*
X005565Y020853D02*
X008502Y020853D01*
X008355Y020694D02*
X005724Y020694D01*
X005882Y020536D02*
X008355Y020536D01*
X008355Y020500D02*
X008355Y020295D01*
X008645Y020005D01*
X008850Y020005D01*
X009055Y020005D01*
X009345Y020295D01*
X009345Y020500D01*
X008850Y020500D01*
X008850Y020500D01*
X008850Y020500D01*
X008850Y020005D01*
X008850Y020500D01*
X008850Y020500D01*
X008355Y020500D01*
X008355Y020377D02*
X006041Y020377D01*
X006199Y020219D02*
X008431Y020219D01*
X008590Y020060D02*
X006358Y020060D01*
X006516Y019902D02*
X013729Y019902D01*
X013848Y019743D02*
X006675Y019743D01*
X006833Y019585D02*
X010179Y019585D01*
X009958Y019426D02*
X006992Y019426D01*
X007150Y019268D02*
X009800Y019268D01*
X009641Y019109D02*
X007309Y019109D01*
X007467Y018951D02*
X009483Y018951D01*
X009324Y018792D02*
X007968Y018792D01*
X008079Y017760D02*
X009572Y017760D01*
X009753Y017835D01*
X010553Y018635D01*
X011001Y018635D01*
X010984Y018626D01*
X010928Y018586D01*
X010879Y018537D01*
X010839Y018481D01*
X010807Y018419D01*
X010786Y018353D01*
X010775Y018285D01*
X010775Y018250D01*
X011475Y018250D01*
X011475Y017810D01*
X011770Y017810D01*
X011838Y017821D01*
X011904Y017842D01*
X011966Y017874D01*
X012022Y017914D01*
X012071Y017963D01*
X012111Y018019D01*
X012143Y018081D01*
X012164Y018147D01*
X012175Y018215D01*
X012175Y018232D01*
X012504Y017903D01*
X012086Y017903D01*
X011965Y017853D01*
X011872Y017760D01*
X011822Y017639D01*
X011822Y017540D01*
X011772Y017490D01*
X007253Y017490D01*
X007091Y017423D01*
X007328Y017660D01*
X007852Y017660D01*
X008069Y017750D01*
X008079Y017760D01*
X007907Y017683D02*
X011840Y017683D01*
X011806Y017524D02*
X007192Y017524D01*
X006440Y018158D02*
X000580Y018158D01*
X000580Y018000D02*
X006282Y018000D01*
X006123Y017841D02*
X000580Y017841D01*
X000580Y017683D02*
X005965Y017683D01*
X005806Y017524D02*
X004698Y017524D01*
X004657Y017565D02*
X004475Y017565D01*
X004475Y017125D01*
X004475Y017125D01*
X004915Y017125D01*
X004915Y017307D01*
X004657Y017565D01*
X004475Y017565D02*
X004475Y017125D01*
X004475Y017125D01*
X004475Y017125D01*
X004035Y017125D01*
X004035Y017307D01*
X004293Y017565D01*
X004475Y017565D01*
X004475Y017524D02*
X004475Y017524D01*
X004475Y017366D02*
X004475Y017366D01*
X004475Y017207D02*
X004475Y017207D01*
X004475Y017125D02*
X004035Y017125D01*
X004035Y016943D01*
X004293Y016685D01*
X004475Y016685D01*
X004657Y016685D01*
X004915Y016943D01*
X004915Y017125D01*
X004475Y017125D01*
X004475Y016685D01*
X004475Y017125D01*
X004475Y017125D01*
X004475Y017049D02*
X004475Y017049D01*
X004475Y016890D02*
X004475Y016890D01*
X004475Y016732D02*
X004475Y016732D01*
X004704Y016732D02*
X005014Y016732D01*
X004862Y016890D02*
X005172Y016890D01*
X005331Y017049D02*
X004915Y017049D01*
X004915Y017207D02*
X005489Y017207D01*
X005648Y017366D02*
X004857Y017366D01*
X004252Y017524D02*
X000580Y017524D01*
X000580Y017366D02*
X004093Y017366D01*
X004035Y017207D02*
X000580Y017207D01*
X000580Y017049D02*
X004035Y017049D01*
X004088Y016890D02*
X000580Y016890D01*
X000580Y016732D02*
X004246Y016732D01*
X004697Y016415D02*
X000580Y016415D01*
X000580Y016573D02*
X004855Y016573D01*
X004538Y016256D02*
X000580Y016256D01*
X000580Y016098D02*
X004380Y016098D01*
X004080Y015939D02*
X000580Y015939D01*
X000580Y015781D02*
X003921Y015781D01*
X003885Y015622D02*
X000580Y015622D01*
X000580Y015464D02*
X003885Y015464D01*
X003885Y015305D02*
X000580Y015305D01*
X000580Y015147D02*
X003994Y015147D01*
X004153Y014988D02*
X000580Y014988D01*
X000580Y014830D02*
X006110Y014830D01*
X006110Y014988D02*
X004797Y014988D01*
X004956Y015147D02*
X006110Y015147D01*
X006110Y015305D02*
X005065Y015305D01*
X005131Y015464D02*
X006110Y015464D01*
X006110Y015622D02*
X005290Y015622D01*
X005448Y015781D02*
X006110Y015781D01*
X006110Y015939D02*
X005607Y015939D01*
X005765Y016098D02*
X006110Y016098D01*
X006110Y016256D02*
X005924Y016256D01*
X006082Y016415D02*
X006138Y016415D01*
X007140Y016098D02*
X007325Y016098D01*
X007418Y016190D02*
X007160Y015932D01*
X007160Y015750D01*
X007600Y015750D01*
X008040Y015750D01*
X008040Y015932D01*
X007782Y016190D01*
X007600Y016190D01*
X007600Y015750D01*
X007600Y015750D01*
X007600Y015750D01*
X008040Y015750D01*
X008040Y015568D01*
X007782Y015310D01*
X007600Y015310D01*
X007600Y015750D01*
X007600Y015750D01*
X007600Y015750D01*
X007600Y016190D01*
X007418Y016190D01*
X007299Y016256D02*
X008697Y016256D01*
X008697Y016098D02*
X007875Y016098D01*
X008033Y015939D02*
X008716Y015939D01*
X008735Y015781D02*
X008040Y015781D01*
X008040Y015622D02*
X008735Y015622D01*
X008735Y015464D02*
X007936Y015464D01*
X007600Y015464D02*
X007600Y015464D01*
X007600Y015310D02*
X007600Y015750D01*
X007160Y015750D01*
X007160Y015568D01*
X007418Y015310D01*
X007600Y015310D01*
X007600Y015622D02*
X007600Y015622D01*
X007600Y015781D02*
X007600Y015781D01*
X007600Y015939D02*
X007600Y015939D01*
X007600Y016098D02*
X007600Y016098D01*
X007457Y016415D02*
X008697Y016415D01*
X008735Y015305D02*
X007090Y015305D01*
X007090Y015147D02*
X008735Y015147D01*
X008735Y014988D02*
X007090Y014988D01*
X007090Y014830D02*
X008735Y014830D01*
X008735Y014671D02*
X007090Y014671D01*
X007090Y014513D02*
X008735Y014513D01*
X008735Y014354D02*
X007090Y014354D01*
X007090Y014196D02*
X008735Y014196D01*
X008735Y014037D02*
X007090Y014037D01*
X007090Y013879D02*
X008735Y013879D01*
X008735Y013720D02*
X007090Y013720D01*
X007090Y013562D02*
X007289Y013562D01*
X007418Y013690D02*
X007160Y013432D01*
X007160Y013250D01*
X007600Y013250D01*
X008040Y013250D01*
X008040Y013432D01*
X007782Y013690D01*
X007600Y013690D01*
X007600Y013250D01*
X007600Y013250D01*
X007600Y013250D01*
X008040Y013250D01*
X008040Y013068D01*
X007782Y012810D01*
X007600Y012810D01*
X007600Y013250D01*
X007600Y013250D01*
X007600Y013250D01*
X007600Y013690D01*
X007418Y013690D01*
X007600Y013562D02*
X007600Y013562D01*
X007600Y013403D02*
X007600Y013403D01*
X007600Y013250D02*
X007160Y013250D01*
X007160Y013068D01*
X007418Y012810D01*
X007600Y012810D01*
X007600Y013250D01*
X007600Y013245D02*
X007600Y013245D01*
X007600Y013086D02*
X007600Y013086D01*
X007600Y012928D02*
X007600Y012928D01*
X007900Y012928D02*
X008735Y012928D01*
X008735Y013086D02*
X008040Y013086D01*
X008040Y013245D02*
X008735Y013245D01*
X008735Y013403D02*
X008040Y013403D01*
X007911Y013562D02*
X008735Y013562D01*
X008735Y012769D02*
X007090Y012769D01*
X007090Y012611D02*
X008735Y012611D01*
X008735Y012452D02*
X007090Y012452D01*
X007090Y012294D02*
X008735Y012294D01*
X008735Y012135D02*
X007090Y012135D01*
X007090Y011977D02*
X008735Y011977D01*
X008735Y011818D02*
X007090Y011818D01*
X007041Y011660D02*
X007300Y011660D01*
X007142Y011501D02*
X006919Y011501D01*
X007010Y011343D02*
X006760Y011343D01*
X006602Y011184D02*
X007010Y011184D01*
X007010Y011026D02*
X006443Y011026D01*
X006285Y010867D02*
X007024Y010867D01*
X007182Y010709D02*
X006126Y010709D01*
X005968Y010550D02*
X007341Y010550D01*
X007641Y010392D02*
X005809Y010392D01*
X005651Y010233D02*
X007799Y010233D01*
X007958Y010075D02*
X005492Y010075D01*
X005334Y009916D02*
X008116Y009916D01*
X008275Y009758D02*
X005175Y009758D01*
X005017Y009599D02*
X008433Y009599D01*
X008592Y009441D02*
X004965Y009441D01*
X004965Y009282D02*
X008750Y009282D01*
X008909Y009124D02*
X007849Y009124D01*
X007782Y009190D02*
X007600Y009190D01*
X007600Y008750D01*
X008040Y008750D01*
X008040Y008932D01*
X007782Y009190D01*
X007600Y009190D02*
X007600Y008750D01*
X007600Y008750D01*
X007600Y008750D01*
X008040Y008750D01*
X008040Y008568D01*
X007782Y008310D01*
X007600Y008310D01*
X007600Y008750D01*
X007600Y008750D01*
X007600Y008750D01*
X007160Y008750D01*
X007160Y008932D01*
X007418Y009190D01*
X007600Y009190D01*
X007600Y009124D02*
X007600Y009124D01*
X007600Y008965D02*
X007600Y008965D01*
X007600Y008807D02*
X007600Y008807D01*
X007600Y008750D02*
X007160Y008750D01*
X007160Y008568D01*
X007418Y008310D01*
X007600Y008310D01*
X007600Y008750D01*
X007600Y008648D02*
X007600Y008648D01*
X007600Y008490D02*
X007600Y008490D01*
X007600Y008331D02*
X007600Y008331D01*
X007803Y008331D02*
X009235Y008331D01*
X009235Y008173D02*
X005105Y008173D01*
X005105Y008331D02*
X007397Y008331D01*
X007238Y008490D02*
X005105Y008490D01*
X005093Y008648D02*
X007160Y008648D01*
X007160Y008807D02*
X004965Y008807D01*
X004965Y008965D02*
X007193Y008965D01*
X007351Y009124D02*
X004965Y009124D01*
X003985Y009124D02*
X003028Y009124D01*
X003080Y009282D02*
X003985Y009282D01*
X003985Y009441D02*
X003080Y009441D01*
X003039Y009599D02*
X003985Y009599D01*
X003985Y009758D02*
X002958Y009758D01*
X002882Y009916D02*
X004013Y009916D01*
X004107Y010075D02*
X003007Y010075D01*
X003073Y010233D02*
X004265Y010233D01*
X004424Y010392D02*
X003080Y010392D01*
X003059Y010550D02*
X004582Y010550D01*
X004741Y010709D02*
X002994Y010709D01*
X002849Y010867D02*
X004899Y010867D01*
X004835Y011026D02*
X005058Y011026D01*
X004993Y011184D02*
X005216Y011184D01*
X005065Y011256D02*
X004719Y010910D01*
X004231Y010910D01*
X003885Y011256D01*
X003885Y011744D01*
X004231Y012090D01*
X004719Y012090D01*
X005065Y011744D01*
X005065Y011256D01*
X005065Y011343D02*
X005375Y011343D01*
X005533Y011501D02*
X005065Y011501D01*
X005065Y011660D02*
X005692Y011660D01*
X005850Y011818D02*
X004991Y011818D01*
X004833Y011977D02*
X006009Y011977D01*
X006110Y012135D02*
X000580Y012135D01*
X000580Y011977D02*
X001656Y011977D01*
X001402Y011818D02*
X000580Y011818D01*
X000580Y011660D02*
X001286Y011660D01*
X001220Y011501D02*
X000580Y011501D01*
X000580Y011343D02*
X001220Y011343D01*
X001247Y011184D02*
X000580Y011184D01*
X000580Y011026D02*
X001313Y011026D01*
X001451Y010867D02*
X000580Y010867D01*
X000580Y010709D02*
X001306Y010709D01*
X001241Y010550D02*
X000580Y010550D01*
X000580Y010392D02*
X001220Y010392D01*
X001227Y010233D02*
X000580Y010233D01*
X000580Y010075D02*
X001293Y010075D01*
X001418Y009916D02*
X000580Y009916D01*
X000580Y009758D02*
X001342Y009758D01*
X001261Y009599D02*
X000580Y009599D01*
X000580Y009441D02*
X001220Y009441D01*
X001220Y009282D02*
X000580Y009282D01*
X000580Y009124D02*
X001272Y009124D01*
X001369Y008965D02*
X000580Y008965D01*
X000580Y008807D02*
X001391Y008807D01*
X001281Y008648D02*
X000580Y008648D01*
X000580Y008490D02*
X001220Y008490D01*
X001220Y008331D02*
X000580Y008331D01*
X000580Y008173D02*
X001252Y008173D01*
X001320Y008014D02*
X000580Y008014D01*
X000580Y007856D02*
X001440Y007856D01*
X001301Y007697D02*
X000580Y007697D01*
X000580Y007539D02*
X001236Y007539D01*
X001220Y007380D02*
X000580Y007380D01*
X000580Y007222D02*
X001232Y007222D01*
X001297Y007063D02*
X000580Y007063D01*
X000580Y006905D02*
X001430Y006905D01*
X001330Y006746D02*
X000580Y006746D01*
X000580Y006588D02*
X001256Y006588D01*
X001220Y006429D02*
X000580Y006429D01*
X000580Y006271D02*
X001220Y006271D01*
X001277Y006112D02*
X000580Y006112D01*
X000580Y005954D02*
X001381Y005954D01*
X001379Y005795D02*
X000580Y005795D01*
X000580Y005637D02*
X001276Y005637D01*
X001220Y005478D02*
X000580Y005478D01*
X000580Y005320D02*
X001220Y005320D01*
X001257Y005161D02*
X000580Y005161D01*
X000580Y005003D02*
X001332Y005003D01*
X001490Y004844D02*
X000580Y004844D01*
X000580Y004686D02*
X001482Y004686D01*
X001395Y004527D02*
X000580Y004527D01*
X001899Y003893D02*
X008295Y003893D01*
X008230Y004052D02*
X002805Y004052D01*
X002901Y004210D02*
X008220Y004210D01*
X008220Y004369D02*
X002170Y004369D01*
X002170Y004210D02*
X002130Y004210D01*
X002130Y004052D02*
X002170Y004052D01*
X001948Y003735D02*
X008425Y003735D01*
X008220Y004527D02*
X002905Y004527D01*
X002818Y004686D02*
X008220Y004686D01*
X008220Y004844D02*
X002810Y004844D01*
X002968Y005003D02*
X008252Y005003D01*
X008320Y005161D02*
X003043Y005161D01*
X003080Y005320D02*
X008360Y005320D01*
X008360Y005478D02*
X003080Y005478D01*
X003024Y005637D02*
X008360Y005637D01*
X008360Y005795D02*
X002921Y005795D01*
X002919Y005954D02*
X008360Y005954D01*
X008360Y006112D02*
X003023Y006112D01*
X003080Y006271D02*
X008360Y006271D01*
X008360Y006429D02*
X003080Y006429D01*
X003044Y006588D02*
X008303Y006588D01*
X008260Y006746D02*
X004737Y006746D01*
X004895Y006905D02*
X008260Y006905D01*
X008260Y007063D02*
X005054Y007063D01*
X005105Y007222D02*
X008362Y007222D01*
X008521Y007380D02*
X005105Y007380D01*
X005105Y007539D02*
X009235Y007539D01*
X009235Y007697D02*
X005044Y007697D01*
X004885Y007856D02*
X009235Y007856D01*
X009235Y008014D02*
X005005Y008014D01*
X003985Y008807D02*
X003934Y008807D01*
X003985Y008965D02*
X003776Y008965D01*
X003174Y008965D02*
X002931Y008965D01*
X002970Y006746D02*
X003213Y006746D01*
X003737Y006746D02*
X004213Y006746D01*
X004055Y006905D02*
X003895Y006905D01*
X007962Y008490D02*
X009235Y008490D01*
X009235Y008648D02*
X008040Y008648D01*
X008040Y008807D02*
X009226Y008807D01*
X009067Y008965D02*
X008007Y008965D01*
X009185Y010233D02*
X009299Y010233D01*
X009343Y010075D02*
X009458Y010075D01*
X009502Y009916D02*
X009616Y009916D01*
X009660Y009758D02*
X015610Y009758D01*
X015610Y009599D02*
X009819Y009599D01*
X009977Y009441D02*
X015610Y009441D01*
X015610Y008014D02*
X010215Y008014D01*
X010215Y007856D02*
X015610Y007856D01*
X015610Y007697D02*
X010215Y007697D01*
X010215Y007539D02*
X015610Y007539D01*
X018340Y009599D02*
X018669Y009599D01*
X018625Y009441D02*
X018477Y009441D01*
X018340Y009758D02*
X018763Y009758D01*
X018979Y009916D02*
X018340Y009916D01*
X017065Y011343D02*
X013370Y011343D01*
X012861Y011818D02*
X016589Y011818D01*
X016748Y011660D02*
X012702Y011660D01*
X012544Y011501D02*
X016906Y011501D01*
X013752Y013879D02*
X012965Y013879D01*
X012965Y014037D02*
X013594Y014037D01*
X013526Y014196D02*
X012965Y014196D01*
X012965Y014354D02*
X013500Y014354D01*
X013508Y014513D02*
X012965Y014513D01*
X012965Y014671D02*
X013574Y014671D01*
X013710Y014830D02*
X013122Y014830D01*
X013281Y014988D02*
X013643Y014988D01*
X013546Y015147D02*
X013439Y015147D01*
X013601Y013720D02*
X012965Y013720D01*
X012965Y013562D02*
X013529Y013562D01*
X013500Y013403D02*
X012965Y013403D01*
X012965Y013245D02*
X013505Y013245D01*
X013571Y013086D02*
X012965Y013086D01*
X012965Y012928D02*
X013703Y012928D01*
X012580Y011343D02*
X012385Y011343D01*
X012466Y011184D02*
X012227Y011184D01*
X012190Y011026D02*
X012433Y011026D01*
X012274Y010867D02*
X012176Y010867D01*
X009141Y010392D02*
X009026Y010392D01*
X008982Y010550D02*
X008868Y010550D01*
X008824Y010709D02*
X008709Y010709D01*
X008750Y010867D02*
X008551Y010867D01*
X008392Y011026D02*
X008735Y011026D01*
X008735Y011184D02*
X008234Y011184D01*
X008190Y011343D02*
X008735Y011343D01*
X008735Y011501D02*
X008058Y011501D01*
X007900Y011660D02*
X008735Y011660D01*
X007300Y012928D02*
X007090Y012928D01*
X007090Y013086D02*
X007160Y013086D01*
X007160Y013245D02*
X007090Y013245D01*
X007090Y013403D02*
X007160Y013403D01*
X006110Y013403D02*
X000580Y013403D01*
X000580Y013245D02*
X006110Y013245D01*
X006110Y013086D02*
X000580Y013086D01*
X000580Y012928D02*
X006110Y012928D01*
X006110Y012769D02*
X000580Y012769D01*
X000580Y012611D02*
X006110Y012611D01*
X006110Y012452D02*
X000580Y012452D01*
X000580Y012294D02*
X006110Y012294D01*
X006110Y013562D02*
X000580Y013562D01*
X000580Y013720D02*
X006110Y013720D01*
X006110Y013879D02*
X000580Y013879D01*
X000580Y014037D02*
X006110Y014037D01*
X006110Y014196D02*
X000580Y014196D01*
X000580Y014354D02*
X006110Y014354D01*
X006110Y014513D02*
X000580Y014513D01*
X000580Y014671D02*
X006110Y014671D01*
X007090Y015464D02*
X007264Y015464D01*
X007160Y015622D02*
X007090Y015622D01*
X007090Y015781D02*
X007160Y015781D01*
X007167Y015939D02*
X007090Y015939D01*
X006599Y018317D02*
X000580Y018317D01*
X000580Y018475D02*
X006557Y018475D01*
X006399Y018634D02*
X000580Y018634D01*
X000580Y018792D02*
X006240Y018792D01*
X006082Y018951D02*
X000580Y018951D01*
X000580Y019109D02*
X005923Y019109D01*
X005765Y019268D02*
X000580Y019268D01*
X000580Y019426D02*
X005606Y019426D01*
X005448Y019585D02*
X000580Y019585D01*
X000580Y019743D02*
X005289Y019743D01*
X005131Y019902D02*
X000580Y019902D01*
X000580Y020060D02*
X004972Y020060D01*
X004814Y020219D02*
X000580Y020219D01*
X000580Y020377D02*
X004655Y020377D01*
X004230Y020536D02*
X000580Y020536D01*
X000580Y020694D02*
X004072Y020694D01*
X003913Y020853D02*
X002818Y020853D01*
X002977Y021011D02*
X003885Y021011D01*
X003885Y021170D02*
X003047Y021170D01*
X003080Y021328D02*
X003885Y021328D01*
X004002Y021487D02*
X003080Y021487D01*
X003020Y021645D02*
X004161Y021645D01*
X003006Y023072D02*
X013577Y023072D01*
X013511Y023230D02*
X003072Y023230D01*
X003080Y023389D02*
X013500Y023389D01*
X013523Y023547D02*
X003061Y023547D01*
X002995Y023706D02*
X013588Y023706D01*
X013745Y023864D02*
X002852Y023864D01*
X002986Y024023D02*
X013608Y024023D01*
X013532Y024181D02*
X003052Y024181D01*
X003080Y024340D02*
X013500Y024340D01*
X013502Y024498D02*
X003080Y024498D01*
X003015Y024657D02*
X013568Y024657D01*
X013696Y024815D02*
X002901Y024815D01*
X002939Y024974D02*
X013657Y024974D01*
X013552Y025132D02*
X003031Y025132D01*
X003080Y025291D02*
X013500Y025291D01*
X013500Y025449D02*
X003080Y025449D01*
X003036Y025608D02*
X013548Y025608D01*
X013647Y025766D02*
X002950Y025766D01*
X002890Y025925D02*
X013706Y025925D01*
X013572Y026083D02*
X003011Y026083D01*
X003077Y026242D02*
X013507Y026242D01*
X013500Y026400D02*
X003080Y026400D01*
X003056Y026559D02*
X013527Y026559D01*
X013598Y026717D02*
X002990Y026717D01*
X002841Y026876D02*
X013757Y026876D01*
X014943Y026876D02*
X016757Y026876D01*
X016598Y026717D02*
X015102Y026717D01*
X015173Y026559D02*
X016527Y026559D01*
X016500Y026400D02*
X015200Y026400D01*
X015193Y026242D02*
X015524Y026242D01*
X015365Y026083D02*
X015128Y026083D01*
X015207Y025925D02*
X014994Y025925D01*
X016600Y025875D02*
X018725Y025875D01*
X018461Y025347D02*
X018340Y025397D01*
X018272Y025465D01*
X018200Y025465D01*
X018200Y025258D01*
X018110Y025041D01*
X017944Y024875D01*
X018110Y024709D01*
X018200Y024492D01*
X018200Y024258D01*
X018110Y024041D01*
X017944Y023875D01*
X018110Y023709D01*
X018200Y023492D01*
X018200Y023258D01*
X018110Y023041D01*
X017944Y022875D01*
X018110Y022709D01*
X018200Y022492D01*
X018200Y022258D01*
X018110Y022041D01*
X017944Y021875D01*
X018110Y021709D01*
X018200Y021492D01*
X018200Y021258D01*
X018110Y021041D01*
X017944Y020875D01*
X017747Y020793D01*
X017779Y020783D01*
X017841Y020751D01*
X017897Y020711D01*
X017946Y020662D01*
X017986Y020606D01*
X018018Y020544D01*
X018039Y020478D01*
X018050Y020410D01*
X018050Y020375D01*
X017350Y020375D01*
X017350Y020785D01*
X017350Y020785D01*
X017350Y020375D01*
X017350Y020375D01*
X017350Y020375D01*
X017010Y020375D01*
X017010Y020375D01*
X017350Y020375D01*
X017350Y020375D01*
X017350Y020285D01*
X017350Y020285D01*
X017350Y020375D01*
X017350Y020375D01*
X018050Y020375D01*
X018050Y020365D01*
X018072Y020365D01*
X018253Y020290D01*
X019385Y019158D01*
X019385Y019242D01*
X019475Y019459D01*
X019641Y019625D01*
X019858Y019715D01*
X020092Y019715D01*
X020309Y019625D01*
X020475Y019459D01*
X020641Y019625D01*
X020858Y019715D01*
X021092Y019715D01*
X021309Y019625D01*
X021475Y019459D01*
X021485Y019469D01*
X021485Y019797D01*
X020522Y020760D01*
X019753Y020760D01*
X019572Y020835D01*
X019072Y021335D01*
X019072Y021335D01*
X018935Y021472D01*
X018860Y021653D01*
X018860Y025347D01*
X018461Y025347D01*
X018288Y025449D02*
X018200Y025449D01*
X018200Y025291D02*
X018860Y025291D01*
X018860Y025132D02*
X018148Y025132D01*
X018043Y024974D02*
X018860Y024974D01*
X018860Y024815D02*
X018004Y024815D01*
X018132Y024657D02*
X018860Y024657D01*
X018860Y024498D02*
X018198Y024498D01*
X018200Y024340D02*
X018860Y024340D01*
X018860Y024181D02*
X018168Y024181D01*
X018092Y024023D02*
X018860Y024023D01*
X018860Y023864D02*
X017955Y023864D01*
X018112Y023706D02*
X018860Y023706D01*
X018860Y023547D02*
X018177Y023547D01*
X018200Y023389D02*
X018860Y023389D01*
X018860Y023230D02*
X018189Y023230D01*
X018123Y023072D02*
X018860Y023072D01*
X018860Y022913D02*
X017982Y022913D01*
X018065Y022755D02*
X018860Y022755D01*
X018860Y022596D02*
X018157Y022596D01*
X018200Y022438D02*
X018860Y022438D01*
X018860Y022279D02*
X018200Y022279D01*
X018143Y022121D02*
X018860Y022121D01*
X018860Y021962D02*
X018031Y021962D01*
X018016Y021804D02*
X018860Y021804D01*
X018863Y021645D02*
X018137Y021645D01*
X018200Y021487D02*
X018929Y021487D01*
X019079Y021328D02*
X018200Y021328D01*
X018164Y021170D02*
X019238Y021170D01*
X019396Y021011D02*
X018080Y021011D01*
X017890Y020853D02*
X019555Y020853D01*
X020588Y020694D02*
X017913Y020694D01*
X018020Y020536D02*
X020747Y020536D01*
X020905Y020377D02*
X018050Y020377D01*
X018324Y020219D02*
X021064Y020219D01*
X021222Y020060D02*
X018483Y020060D01*
X018641Y019902D02*
X021381Y019902D01*
X021485Y019743D02*
X018800Y019743D01*
X018958Y019585D02*
X019600Y019585D01*
X019461Y019426D02*
X019117Y019426D01*
X019275Y019268D02*
X019395Y019268D01*
X020350Y019585D02*
X020600Y019585D01*
X021350Y019585D02*
X021485Y019585D01*
X020475Y022459D02*
X020309Y022625D01*
X020092Y022715D01*
X019858Y022715D01*
X019840Y022708D01*
X019840Y023755D01*
X019975Y023755D01*
X020180Y023755D01*
X020369Y023944D01*
X020485Y023828D01*
X020485Y022469D01*
X020475Y022459D01*
X020485Y022596D02*
X020338Y022596D01*
X020485Y022755D02*
X019840Y022755D01*
X019840Y022913D02*
X020485Y022913D01*
X020485Y023072D02*
X019840Y023072D01*
X019840Y023230D02*
X020485Y023230D01*
X020485Y023389D02*
X019840Y023389D01*
X019840Y023547D02*
X020485Y023547D01*
X020485Y023706D02*
X019840Y023706D01*
X019975Y023755D02*
X019975Y024250D01*
X019975Y024250D01*
X019975Y024745D01*
X020180Y024745D01*
X020369Y024556D01*
X020485Y024672D01*
X020485Y025222D01*
X020560Y025403D01*
X022860Y027703D01*
X022860Y028156D01*
X022850Y028166D01*
X022684Y028000D01*
X022467Y027910D01*
X022233Y027910D01*
X022016Y028000D01*
X021965Y028051D01*
X021965Y027153D01*
X021890Y026972D01*
X021753Y026835D01*
X021378Y026460D01*
X021378Y026361D01*
X021328Y026240D01*
X021235Y026147D01*
X021114Y026097D01*
X020586Y026097D01*
X020465Y026147D01*
X020372Y026240D01*
X020322Y026361D01*
X020322Y026889D01*
X020372Y027010D01*
X020465Y027103D01*
X020586Y027153D01*
X020685Y027153D01*
X020985Y027453D01*
X020985Y030472D01*
X021060Y030653D01*
X021685Y031278D01*
X021822Y031415D01*
X022003Y031490D01*
X028628Y031490D01*
X028822Y031490D01*
X029003Y031415D01*
X029888Y030530D01*
X029819Y030789D01*
X029819Y031061D01*
X029889Y031323D01*
X030015Y031541D01*
X019972Y031541D01*
X020030Y031400D01*
X020030Y030550D01*
X019934Y030318D01*
X019840Y030224D01*
X019840Y024745D01*
X019975Y024745D01*
X019975Y024250D01*
X019975Y023755D01*
X019975Y023864D02*
X019975Y023864D01*
X019975Y024023D02*
X019975Y024023D01*
X019975Y024181D02*
X019975Y024181D01*
X019975Y024250D02*
X019975Y024250D01*
X019975Y024340D02*
X019975Y024340D01*
X019975Y024498D02*
X019975Y024498D01*
X019975Y024657D02*
X019975Y024657D01*
X019840Y024815D02*
X020485Y024815D01*
X020485Y024974D02*
X019840Y024974D01*
X019840Y025132D02*
X020485Y025132D01*
X020513Y025291D02*
X019840Y025291D01*
X019840Y025449D02*
X020606Y025449D01*
X020765Y025608D02*
X019840Y025608D01*
X019840Y025766D02*
X020923Y025766D01*
X021082Y025925D02*
X019840Y025925D01*
X019840Y026083D02*
X021240Y026083D01*
X021329Y026242D02*
X021399Y026242D01*
X021378Y026400D02*
X021557Y026400D01*
X021477Y026559D02*
X021716Y026559D01*
X021635Y026717D02*
X021874Y026717D01*
X021794Y026876D02*
X022033Y026876D01*
X021916Y027034D02*
X022191Y027034D01*
X022350Y027193D02*
X021965Y027193D01*
X021965Y027351D02*
X022508Y027351D01*
X022667Y027510D02*
X021965Y027510D01*
X021965Y027668D02*
X022825Y027668D01*
X022860Y027827D02*
X021965Y027827D01*
X021965Y027985D02*
X022051Y027985D01*
X022649Y027985D02*
X022860Y027985D01*
X022860Y028144D02*
X022828Y028144D01*
X020985Y028144D02*
X019840Y028144D01*
X019840Y028302D02*
X020985Y028302D01*
X020985Y028461D02*
X019840Y028461D01*
X019840Y028619D02*
X020985Y028619D01*
X020985Y028778D02*
X019840Y028778D01*
X019840Y028936D02*
X020985Y028936D01*
X020985Y029095D02*
X019840Y029095D01*
X019840Y029253D02*
X020985Y029253D01*
X020985Y029412D02*
X019840Y029412D01*
X019840Y029570D02*
X020985Y029570D01*
X020985Y029729D02*
X019840Y029729D01*
X019840Y029887D02*
X020985Y029887D01*
X020985Y030046D02*
X019840Y030046D01*
X019840Y030204D02*
X020985Y030204D01*
X020985Y030363D02*
X019952Y030363D01*
X020018Y030521D02*
X021005Y030521D01*
X021087Y030680D02*
X020030Y030680D01*
X020030Y030838D02*
X021245Y030838D01*
X021404Y030997D02*
X020030Y030997D01*
X020030Y031155D02*
X021562Y031155D01*
X021721Y031314D02*
X020030Y031314D01*
X020000Y031472D02*
X021959Y031472D01*
X018860Y030204D02*
X018820Y030204D01*
X018860Y030046D02*
X018527Y030046D01*
X018273Y030046D02*
X017527Y030046D01*
X017273Y030046D02*
X013527Y030046D01*
X013273Y030046D02*
X012527Y030046D01*
X012273Y030046D02*
X001489Y030046D01*
X001687Y030204D02*
X011980Y030204D01*
X011848Y030363D02*
X001816Y030363D01*
X001907Y030521D02*
X011782Y030521D01*
X011770Y030680D02*
X001952Y030680D01*
X001981Y030838D02*
X011770Y030838D01*
X011770Y030997D02*
X001981Y030997D01*
X001956Y031155D02*
X011770Y031155D01*
X011770Y031314D02*
X001913Y031314D01*
X001825Y031472D02*
X011800Y031472D01*
X012820Y030204D02*
X012980Y030204D01*
X013820Y030204D02*
X014305Y030204D01*
X014380Y030204D02*
X014420Y030204D01*
X014420Y030195D02*
X014438Y030195D01*
X014512Y030207D01*
X014584Y030230D01*
X014652Y030264D01*
X014713Y030309D01*
X014766Y030362D01*
X014811Y030423D01*
X014845Y030491D01*
X014868Y030563D01*
X014880Y030637D01*
X014880Y030955D01*
X014420Y030955D01*
X014420Y030195D01*
X014495Y030204D02*
X015305Y030204D01*
X015288Y030207D02*
X015362Y030195D01*
X015380Y030195D01*
X015380Y030955D01*
X014920Y030955D01*
X014920Y030637D01*
X014932Y030563D01*
X014955Y030491D01*
X014989Y030423D01*
X015034Y030362D01*
X015087Y030309D01*
X015148Y030264D01*
X015216Y030230D01*
X015288Y030207D01*
X015380Y030204D02*
X015420Y030204D01*
X015420Y030195D02*
X015438Y030195D01*
X015512Y030207D01*
X015584Y030230D01*
X015652Y030264D01*
X015713Y030309D01*
X015766Y030362D01*
X015811Y030423D01*
X015845Y030491D01*
X015868Y030563D01*
X015880Y030637D01*
X015880Y030955D01*
X015420Y030955D01*
X015420Y030195D01*
X015495Y030204D02*
X016305Y030204D01*
X016288Y030207D02*
X016362Y030195D01*
X016380Y030195D01*
X016380Y030955D01*
X015920Y030955D01*
X015920Y030637D01*
X015932Y030563D01*
X015955Y030491D01*
X015989Y030423D01*
X016034Y030362D01*
X016087Y030309D01*
X016148Y030264D01*
X016216Y030230D01*
X016288Y030207D01*
X016380Y030204D02*
X016420Y030204D01*
X016495Y030204D02*
X016980Y030204D01*
X016848Y030363D02*
X016766Y030363D01*
X016420Y030363D02*
X016380Y030363D01*
X016380Y030521D02*
X016420Y030521D01*
X016420Y030680D02*
X016380Y030680D01*
X016380Y030838D02*
X016420Y030838D01*
X015920Y030838D02*
X015880Y030838D01*
X015880Y030680D02*
X015920Y030680D01*
X015945Y030521D02*
X015855Y030521D01*
X015766Y030363D02*
X016034Y030363D01*
X015420Y030363D02*
X015380Y030363D01*
X015380Y030521D02*
X015420Y030521D01*
X015420Y030680D02*
X015380Y030680D01*
X015380Y030838D02*
X015420Y030838D01*
X015880Y030997D02*
X015920Y030997D01*
X015920Y031155D02*
X015880Y031155D01*
X015880Y031314D02*
X015920Y031314D01*
X015962Y031472D02*
X015838Y031472D01*
X014962Y031472D02*
X014838Y031472D01*
X014880Y031314D02*
X014920Y031314D01*
X014920Y031155D02*
X014880Y031155D01*
X014880Y030997D02*
X014920Y030997D01*
X014920Y030838D02*
X014880Y030838D01*
X014880Y030680D02*
X014920Y030680D01*
X014945Y030521D02*
X014855Y030521D01*
X014766Y030363D02*
X015034Y030363D01*
X014420Y030363D02*
X014380Y030363D01*
X014380Y030521D02*
X014420Y030521D01*
X014420Y030680D02*
X014380Y030680D01*
X014380Y030838D02*
X014420Y030838D01*
X014034Y030363D02*
X013952Y030363D01*
X017820Y030204D02*
X017980Y030204D01*
X018860Y029887D02*
X000580Y029887D01*
X000580Y029729D02*
X018860Y029729D01*
X018860Y029570D02*
X000580Y029570D01*
X000580Y029412D02*
X018860Y029412D01*
X018860Y029253D02*
X000580Y029253D01*
X000580Y029095D02*
X018860Y029095D01*
X018860Y028936D02*
X002742Y028936D01*
X002938Y028778D02*
X018860Y028778D01*
X018860Y028619D02*
X003031Y028619D01*
X003080Y028461D02*
X018860Y028461D01*
X018860Y028302D02*
X003080Y028302D01*
X003036Y028144D02*
X018860Y028144D01*
X018860Y027985D02*
X002951Y027985D01*
X002889Y027827D02*
X018860Y027827D01*
X018860Y027668D02*
X003011Y027668D01*
X003076Y027510D02*
X018860Y027510D01*
X018860Y027351D02*
X003080Y027351D01*
X003056Y027193D02*
X018860Y027193D01*
X018860Y027034D02*
X002991Y027034D01*
X001459Y026876D02*
X000580Y026876D01*
X000580Y027034D02*
X001309Y027034D01*
X001244Y027193D02*
X000580Y027193D01*
X000580Y027351D02*
X001220Y027351D01*
X001224Y027510D02*
X000580Y027510D01*
X000580Y027668D02*
X001289Y027668D01*
X001411Y027827D02*
X000580Y027827D01*
X000580Y027985D02*
X001349Y027985D01*
X001264Y028144D02*
X000580Y028144D01*
X000580Y028302D02*
X001220Y028302D01*
X001220Y028461D02*
X000580Y028461D01*
X000580Y028619D02*
X001269Y028619D01*
X001362Y028778D02*
X000580Y028778D01*
X000580Y028936D02*
X001558Y028936D01*
X001310Y026717D02*
X000580Y026717D01*
X000580Y026559D02*
X001244Y026559D01*
X001220Y026400D02*
X000580Y026400D01*
X000580Y026242D02*
X001223Y026242D01*
X001289Y026083D02*
X000580Y026083D01*
X000580Y025925D02*
X001410Y025925D01*
X001350Y025766D02*
X000580Y025766D01*
X000580Y025608D02*
X001264Y025608D01*
X001220Y025449D02*
X000580Y025449D01*
X000580Y025291D02*
X001220Y025291D01*
X001269Y025132D02*
X000580Y025132D01*
X000580Y024974D02*
X001361Y024974D01*
X001399Y024815D02*
X000580Y024815D01*
X000580Y024657D02*
X001285Y024657D01*
X001220Y024498D02*
X000580Y024498D01*
X000580Y024340D02*
X001220Y024340D01*
X001248Y024181D02*
X000580Y024181D01*
X000580Y024023D02*
X001314Y024023D01*
X001448Y023864D02*
X000580Y023864D01*
X000580Y023706D02*
X001305Y023706D01*
X001239Y023547D02*
X000580Y023547D01*
X000580Y023389D02*
X001220Y023389D01*
X001228Y023230D02*
X000580Y023230D01*
X000580Y023072D02*
X001294Y023072D01*
X001421Y022913D02*
X000580Y022913D01*
X000580Y022755D02*
X001339Y022755D01*
X001260Y022596D02*
X000580Y022596D01*
X000580Y022438D02*
X001220Y022438D01*
X001220Y022279D02*
X000580Y022279D01*
X000580Y022121D02*
X001273Y022121D01*
X001372Y021962D02*
X000580Y021962D01*
X000580Y021804D02*
X001388Y021804D01*
X001280Y021645D02*
X000580Y021645D01*
X000580Y021487D02*
X001220Y021487D01*
X001220Y021328D02*
X000580Y021328D01*
X000580Y021170D02*
X001253Y021170D01*
X001323Y021011D02*
X000580Y021011D01*
X000580Y020853D02*
X001482Y020853D01*
X008850Y020377D02*
X008850Y020377D01*
X008850Y020219D02*
X008850Y020219D01*
X008850Y020060D02*
X008850Y020060D01*
X009110Y020060D02*
X011215Y020060D01*
X011270Y020005D02*
X010980Y020295D01*
X010980Y020500D01*
X011475Y020500D01*
X011970Y020500D01*
X011970Y020705D01*
X011781Y020894D01*
X012120Y021233D01*
X012120Y021767D01*
X011742Y022145D01*
X011208Y022145D01*
X010830Y021767D01*
X010830Y021233D01*
X011169Y020894D01*
X010980Y020705D01*
X010980Y020500D01*
X011475Y020500D01*
X011475Y020500D01*
X011475Y020500D01*
X011970Y020500D01*
X011970Y020295D01*
X011680Y020005D01*
X011475Y020005D01*
X011475Y020500D01*
X011475Y020500D01*
X011475Y020005D01*
X011270Y020005D01*
X011475Y020060D02*
X011475Y020060D01*
X011475Y020219D02*
X011475Y020219D01*
X011475Y020377D02*
X011475Y020377D01*
X011735Y020060D02*
X013582Y020060D01*
X013516Y020219D02*
X011894Y020219D01*
X011970Y020377D02*
X013500Y020377D01*
X013518Y020536D02*
X011970Y020536D01*
X011970Y020694D02*
X013584Y020694D01*
X013733Y020853D02*
X011823Y020853D01*
X011898Y021011D02*
X013620Y021011D01*
X013536Y021170D02*
X012057Y021170D01*
X012120Y021328D02*
X013500Y021328D01*
X013500Y021487D02*
X012120Y021487D01*
X012120Y021645D02*
X013563Y021645D01*
X013684Y021804D02*
X012084Y021804D01*
X011925Y021962D02*
X013669Y021962D01*
X013557Y022121D02*
X011767Y022121D01*
X011183Y022121D02*
X009142Y022121D01*
X009300Y021962D02*
X011025Y021962D01*
X010866Y021804D02*
X009459Y021804D01*
X009495Y021645D02*
X010830Y021645D01*
X010830Y021487D02*
X009495Y021487D01*
X009495Y021328D02*
X010830Y021328D01*
X010893Y021170D02*
X009432Y021170D01*
X009273Y021011D02*
X011052Y021011D01*
X011127Y020853D02*
X009198Y020853D01*
X009345Y020694D02*
X010980Y020694D01*
X010980Y020536D02*
X009345Y020536D01*
X009345Y020377D02*
X010980Y020377D01*
X011056Y020219D02*
X009269Y020219D01*
X010551Y018634D02*
X010999Y018634D01*
X010836Y018475D02*
X010393Y018475D01*
X010234Y018317D02*
X010780Y018317D01*
X010775Y018250D02*
X010775Y018215D01*
X010786Y018147D01*
X010807Y018081D01*
X010839Y018019D01*
X010879Y017963D01*
X010928Y017914D01*
X010984Y017874D01*
X011046Y017842D01*
X011112Y017821D01*
X011180Y017810D01*
X011475Y017810D01*
X011475Y018250D01*
X011475Y018250D01*
X011475Y018250D01*
X010775Y018250D01*
X010784Y018158D02*
X010076Y018158D01*
X009917Y018000D02*
X010853Y018000D01*
X011050Y017841D02*
X009759Y017841D01*
X011475Y017841D02*
X011475Y017841D01*
X011475Y018000D02*
X011475Y018000D01*
X011475Y018158D02*
X011475Y018158D01*
X011900Y017841D02*
X011953Y017841D01*
X012097Y018000D02*
X012408Y018000D01*
X012249Y018158D02*
X012166Y018158D01*
X012842Y018951D02*
X013938Y018951D01*
X013739Y019109D02*
X012684Y019109D01*
X012525Y019268D02*
X013662Y019268D01*
X013653Y019426D02*
X012367Y019426D01*
X012146Y019585D02*
X013703Y019585D01*
X013673Y018792D02*
X013001Y018792D01*
X013159Y018634D02*
X013558Y018634D01*
X013500Y018475D02*
X013318Y018475D01*
X013476Y018317D02*
X013500Y018317D01*
X016725Y019875D02*
X017975Y019875D01*
X017350Y020377D02*
X017350Y020377D01*
X017350Y020536D02*
X017350Y020536D01*
X017350Y020694D02*
X017350Y020694D01*
X020289Y023864D02*
X020449Y023864D01*
X020469Y024657D02*
X020268Y024657D01*
X020371Y026242D02*
X019840Y026242D01*
X019840Y026400D02*
X020322Y026400D01*
X020322Y026559D02*
X019840Y026559D01*
X019840Y026717D02*
X020322Y026717D01*
X020322Y026876D02*
X019840Y026876D01*
X019840Y027034D02*
X020396Y027034D01*
X020725Y027193D02*
X019840Y027193D01*
X019840Y027351D02*
X020883Y027351D01*
X020985Y027510D02*
X019840Y027510D01*
X019840Y027668D02*
X020985Y027668D01*
X020985Y027827D02*
X019840Y027827D01*
X019840Y027985D02*
X020985Y027985D01*
X018860Y026876D02*
X017943Y026876D01*
X018102Y026717D02*
X018860Y026717D01*
X018860Y026559D02*
X018173Y026559D01*
X018200Y026400D02*
X018454Y026400D01*
X028866Y031472D02*
X029975Y031472D01*
X029887Y031314D02*
X029104Y031314D01*
X029263Y031155D02*
X029844Y031155D01*
X029819Y030997D02*
X029421Y030997D01*
X029580Y030838D02*
X029819Y030838D01*
X029848Y030680D02*
X029738Y030680D01*
X026860Y012294D02*
X019965Y012294D01*
X020184Y012135D02*
X023001Y012135D01*
X022984Y012126D02*
X022928Y012086D01*
X022879Y012037D01*
X022839Y011981D01*
X022807Y011919D01*
X022786Y011853D01*
X022775Y011785D01*
X022775Y011750D01*
X023475Y011750D01*
X023475Y011750D01*
X023475Y012190D01*
X023770Y012190D01*
X023838Y012179D01*
X023904Y012158D01*
X023966Y012126D01*
X024022Y012086D01*
X024071Y012037D01*
X024111Y011981D01*
X024143Y011919D01*
X024164Y011853D01*
X024175Y011785D01*
X024175Y011750D01*
X023475Y011750D01*
X023475Y011750D01*
X023475Y011310D01*
X023770Y011310D01*
X023838Y011321D01*
X023904Y011342D01*
X023966Y011374D01*
X024022Y011414D01*
X024071Y011463D01*
X024111Y011519D01*
X024143Y011581D01*
X024164Y011647D01*
X024175Y011715D01*
X024175Y011750D01*
X023475Y011750D01*
X023475Y011750D01*
X023475Y011750D01*
X023475Y012190D01*
X023180Y012190D01*
X023112Y012179D01*
X023046Y012158D01*
X022984Y012126D01*
X022837Y011977D02*
X020280Y011977D01*
X020325Y011818D02*
X022780Y011818D01*
X022775Y011750D02*
X022775Y011715D01*
X022786Y011647D01*
X022807Y011581D01*
X022839Y011519D01*
X022879Y011463D01*
X022928Y011414D01*
X022984Y011374D01*
X023046Y011342D01*
X023112Y011321D01*
X023180Y011310D01*
X023475Y011310D01*
X023475Y011750D01*
X022775Y011750D01*
X022784Y011660D02*
X020325Y011660D01*
X020270Y011501D02*
X022852Y011501D01*
X023046Y011343D02*
X020162Y011343D01*
X019910Y011184D02*
X026720Y011184D01*
X026720Y011343D02*
X023904Y011343D01*
X024098Y011501D02*
X026720Y011501D01*
X026744Y011660D02*
X024166Y011660D01*
X024170Y011818D02*
X026860Y011818D01*
X026860Y011977D02*
X024113Y011977D01*
X023949Y012135D02*
X026860Y012135D01*
X023475Y012135D02*
X023475Y012135D01*
X023475Y011977D02*
X023475Y011977D01*
X023475Y011818D02*
X023475Y011818D01*
X023475Y011660D02*
X023475Y011660D01*
X023475Y011501D02*
X023475Y011501D01*
X023475Y011343D02*
X023475Y011343D01*
X023475Y009758D02*
X023475Y009758D01*
X023475Y009599D02*
X023475Y009599D01*
X023475Y009441D02*
X023475Y009441D01*
X023475Y009282D02*
X023475Y009282D01*
X023475Y009124D02*
X023475Y009124D01*
X023475Y008965D02*
X023475Y008965D01*
X023915Y006905D02*
X026930Y006905D01*
X026830Y006746D02*
X023915Y006746D01*
X023915Y006588D02*
X026720Y006588D01*
X026720Y006429D02*
X023776Y006429D01*
X022374Y004686D02*
X026770Y004686D01*
X025880Y004527D02*
X022532Y004527D01*
X022690Y004369D02*
X025721Y004369D01*
X025660Y004210D02*
X022690Y004210D01*
X022690Y004052D02*
X025660Y004052D01*
X025710Y003893D02*
X022690Y003893D01*
X021815Y003576D02*
X020010Y003576D01*
X019999Y004686D02*
X021826Y004686D01*
X027759Y003893D02*
X027941Y003893D01*
X011425Y003735D02*
X011275Y003735D01*
X010425Y003735D02*
X010275Y003735D01*
X009425Y003735D02*
X009275Y003735D01*
X009235Y007380D02*
X009179Y007380D01*
X004115Y011026D02*
X002987Y011026D01*
X003053Y011184D02*
X003957Y011184D01*
X003885Y011343D02*
X003080Y011343D01*
X003080Y011501D02*
X003885Y011501D01*
X003885Y011660D02*
X003014Y011660D01*
X002898Y011818D02*
X003959Y011818D01*
X004117Y011977D02*
X002644Y011977D01*
D17*
X004475Y009750D02*
X006600Y011875D01*
X006600Y016250D01*
X007350Y017000D01*
X011975Y017000D01*
X012350Y017375D01*
X013725Y017375D02*
X014350Y017375D01*
X013725Y017375D02*
X011975Y019125D01*
X010350Y019125D01*
X009475Y018250D01*
X007475Y018250D01*
X007225Y018250D01*
X004475Y015500D01*
X007475Y018250D02*
X004600Y021125D01*
X004475Y021125D01*
X009225Y016250D02*
X009225Y011000D01*
X009975Y010250D01*
X012350Y010250D01*
X012975Y010875D01*
X012475Y012125D02*
X011600Y011250D01*
X011600Y011125D01*
X012475Y012125D02*
X012475Y014875D01*
X013975Y016375D01*
X014350Y016375D01*
X014850Y016875D01*
X016225Y016875D01*
X016350Y016375D02*
X016100Y016125D01*
X016100Y013000D01*
X017850Y011250D01*
X017850Y009375D01*
X018725Y008500D01*
X018725Y004125D01*
X019725Y004125D02*
X022100Y004125D01*
X016100Y006750D02*
X016100Y010500D01*
X017850Y012875D02*
X017350Y013375D01*
X017850Y012875D02*
X026850Y012875D01*
X026850Y013625D02*
X025225Y013625D01*
X023975Y014875D01*
X021725Y014875D01*
X018725Y017875D01*
X018975Y016875D02*
X019475Y016375D01*
X019475Y014125D01*
X021600Y016250D02*
X017975Y019875D01*
X017850Y020375D02*
X017350Y020375D01*
X017850Y020375D02*
X018600Y021125D01*
X018600Y024625D01*
X016600Y025875D02*
X015850Y025875D01*
X014350Y024375D01*
X014350Y022375D02*
X016100Y020625D01*
X016100Y018250D01*
X015225Y017375D02*
X015225Y020500D01*
X015475Y020500D01*
X019350Y021750D02*
X019350Y030925D01*
X019400Y030975D01*
X021475Y030375D02*
X022100Y031000D01*
X028725Y031000D01*
X031225Y028500D01*
X031225Y027000D01*
X030600Y026375D01*
X029650Y026375D01*
X029650Y025375D02*
X030725Y025375D01*
X031225Y025000D01*
X031225Y013375D01*
X030475Y012875D01*
X028100Y012875D01*
X027350Y011375D02*
X027350Y019375D01*
X026225Y020500D01*
X026225Y025875D01*
X024350Y027750D01*
X024350Y028500D01*
X023350Y028500D02*
X023350Y027500D01*
X020975Y025125D01*
X020975Y024250D01*
X020975Y022125D01*
X020725Y021250D02*
X019850Y021250D01*
X019350Y021750D01*
X020725Y021250D02*
X021975Y020000D01*
X021975Y019125D01*
X022975Y019125D02*
X022975Y016750D01*
X022100Y016250D02*
X021600Y016250D01*
X023725Y016250D02*
X023850Y016125D01*
X026725Y016125D01*
X028100Y016125D02*
X030600Y018500D01*
X030600Y023125D01*
X030225Y023375D01*
X029650Y023375D01*
X025350Y021500D02*
X022975Y019125D01*
X025475Y020000D02*
X026725Y018750D01*
X026850Y018750D01*
X025350Y021500D02*
X025350Y025500D01*
X024600Y024750D02*
X024600Y024250D01*
X023600Y023250D01*
X020850Y026625D02*
X021475Y027250D01*
X021475Y030375D01*
X017350Y016375D02*
X016350Y016375D01*
X012475Y014875D02*
X011600Y015750D01*
X007600Y011125D02*
X009725Y009000D01*
X009725Y004625D01*
X009850Y004500D01*
X008850Y004500D02*
X008850Y006875D01*
X011600Y008750D02*
X013225Y008750D01*
X016100Y006750D02*
X014225Y004875D01*
X004475Y008375D02*
X004475Y009750D01*
D18*
X009225Y016250D03*
X012350Y017375D03*
X015225Y017375D03*
X015475Y020500D03*
X018600Y024625D03*
X018725Y025875D03*
X020850Y026625D03*
X023600Y023250D03*
X024600Y024750D03*
X025475Y020000D03*
X026850Y018750D03*
X026725Y016125D03*
X028100Y016125D03*
X026850Y013625D03*
X026850Y012875D03*
X028100Y012875D03*
X016100Y010500D03*
X012975Y010875D03*
X014225Y004875D03*
D19*
X003475Y007375D02*
X002150Y007375D01*
X002150Y008375D02*
X003475Y008375D01*
X028350Y008375D02*
X029650Y008375D01*
X029650Y009375D02*
X028350Y009375D01*
X028350Y010375D02*
X029650Y010375D01*
X029650Y011375D02*
X028350Y011375D01*
X028350Y007375D02*
X029650Y007375D01*
X029650Y006375D02*
X028350Y006375D01*
X028350Y005375D02*
X029650Y005375D01*
X029650Y004375D02*
X028350Y004375D01*
X029350Y021375D02*
X028350Y022375D01*
X029350Y021375D02*
X029650Y021375D01*
M02*
