G75*
%MOIN*%
%OFA0B0*%
%FSLAX24Y24*%
%IPPOS*%
%LPD*%
%AMOC8*
5,1,8,0,0,1.08239X$1,22.5*
%
%ADD10C,0.0030*%
%ADD11C,0.0060*%
%ADD12C,0.0050*%
%ADD13C,0.0070*%
%ADD14R,0.0340X0.0240*%
%ADD15R,0.0240X0.0340*%
%ADD16C,0.0100*%
%ADD17C,0.0300*%
%ADD18R,0.0300X0.0200*%
%ADD19R,0.0300X0.0400*%
%ADD20R,0.0800X0.0200*%
%ADD21R,0.0200X0.0750*%
%ADD22R,0.0200X0.0800*%
%ADD23R,0.0750X0.0200*%
%ADD24C,0.0080*%
D10*
X019238Y027935D02*
X019115Y028058D01*
X019485Y028058D01*
X019485Y027935D02*
X019485Y028181D01*
X019423Y028303D02*
X019176Y028550D01*
X019423Y028550D01*
X019485Y028488D01*
X019485Y028365D01*
X019423Y028303D01*
X019176Y028303D01*
X019115Y028365D01*
X019115Y028488D01*
X019176Y028550D01*
X019115Y028671D02*
X019362Y028671D01*
X019485Y028795D01*
X019362Y028918D01*
X019115Y028918D01*
X019300Y029040D02*
X019300Y029286D01*
X019362Y029408D02*
X019362Y029593D01*
X019300Y029655D01*
X019176Y029655D01*
X019115Y029593D01*
X019115Y029408D01*
X019485Y029408D01*
X019362Y029531D02*
X019485Y029655D01*
X019423Y029776D02*
X019300Y029776D01*
X019238Y029838D01*
X019238Y029961D01*
X019300Y030023D01*
X019362Y030023D01*
X019362Y029776D01*
X019423Y029776D02*
X019485Y029838D01*
X019485Y029961D01*
X019485Y030206D02*
X019176Y030206D01*
X019115Y030268D01*
X019300Y030268D02*
X019300Y030144D01*
X018610Y030083D02*
X018610Y030207D01*
X018548Y030269D01*
X018610Y030083D02*
X018548Y030022D01*
X018301Y030022D01*
X018240Y030083D01*
X018240Y030207D01*
X018301Y030269D01*
X018301Y029900D02*
X018240Y029839D01*
X018240Y029653D01*
X018610Y029653D01*
X018610Y029839D01*
X018548Y029900D01*
X018301Y029900D01*
X018240Y029532D02*
X018487Y029532D01*
X018610Y029408D01*
X018487Y029285D01*
X018240Y029285D01*
X018425Y029164D02*
X018425Y028917D01*
X018548Y029040D02*
X018301Y029040D01*
X017610Y029408D02*
X017487Y029532D01*
X017240Y029532D01*
X017240Y029653D02*
X017240Y029839D01*
X017301Y029900D01*
X017548Y029900D01*
X017610Y029839D01*
X017610Y029653D01*
X017240Y029653D01*
X017240Y029285D02*
X017487Y029285D01*
X017610Y029408D01*
X017425Y029164D02*
X017425Y028917D01*
X016610Y028917D02*
X016610Y029102D01*
X016548Y029164D01*
X016301Y029164D01*
X016240Y029102D01*
X016240Y028917D01*
X016610Y028917D01*
X016548Y029285D02*
X016301Y029285D01*
X016240Y029347D01*
X016240Y029470D01*
X016301Y029532D01*
X016301Y029653D02*
X016548Y029653D01*
X016610Y029715D01*
X016610Y029839D01*
X016548Y029900D01*
X016301Y029900D01*
X016240Y029839D01*
X016240Y029715D01*
X016301Y029653D01*
X016548Y029532D02*
X016610Y029470D01*
X016610Y029347D01*
X016548Y029285D01*
X016610Y030022D02*
X016240Y030022D01*
X016363Y030145D01*
X016240Y030269D01*
X016610Y030269D01*
X017240Y030207D02*
X017240Y030083D01*
X017301Y030022D01*
X017548Y030022D01*
X017610Y030083D01*
X017610Y030207D01*
X017548Y030269D01*
X017301Y030269D02*
X017240Y030207D01*
X015610Y030269D02*
X015240Y030269D01*
X015363Y030145D01*
X015240Y030022D01*
X015610Y030022D01*
X015548Y029900D02*
X015301Y029900D01*
X015240Y029839D01*
X015240Y029715D01*
X015301Y029653D01*
X015548Y029653D01*
X015610Y029715D01*
X015610Y029839D01*
X015548Y029900D01*
X015548Y029532D02*
X015610Y029470D01*
X015610Y029347D01*
X015548Y029285D01*
X015301Y029285D01*
X015240Y029347D01*
X015240Y029470D01*
X015301Y029532D01*
X015301Y029164D02*
X015240Y029102D01*
X015240Y028917D01*
X015610Y028917D01*
X015610Y029102D01*
X015548Y029164D01*
X015301Y029164D01*
X014610Y029102D02*
X014548Y029164D01*
X014301Y029164D01*
X014240Y029102D01*
X014240Y028917D01*
X014610Y028917D01*
X014610Y029102D01*
X014548Y029285D02*
X014301Y029285D01*
X014240Y029347D01*
X014240Y029470D01*
X014301Y029532D01*
X014301Y029653D02*
X014548Y029653D01*
X014610Y029715D01*
X014610Y029839D01*
X014548Y029900D01*
X014301Y029900D01*
X014240Y029839D01*
X014240Y029715D01*
X014301Y029653D01*
X014548Y029532D02*
X014610Y029470D01*
X014610Y029347D01*
X014548Y029285D01*
X014610Y030022D02*
X014240Y030022D01*
X014363Y030145D01*
X014240Y030269D01*
X014610Y030269D01*
X013610Y030145D02*
X013487Y030269D01*
X013240Y030269D01*
X013240Y030022D02*
X013487Y030022D01*
X013610Y030145D01*
X013548Y029900D02*
X013610Y029839D01*
X013610Y029715D01*
X013548Y029653D01*
X013301Y029900D01*
X013548Y029900D01*
X013301Y029900D02*
X013240Y029839D01*
X013240Y029715D01*
X013301Y029653D01*
X013548Y029653D01*
X013548Y029531D02*
X013610Y029531D01*
X013610Y029469D01*
X013548Y029469D01*
X013548Y029531D01*
X013548Y029348D02*
X013610Y029286D01*
X013610Y029163D01*
X013548Y029101D01*
X013425Y029101D02*
X013363Y029224D01*
X013363Y029286D01*
X013425Y029348D01*
X013548Y029348D01*
X013425Y029101D02*
X013240Y029101D01*
X013240Y029348D01*
X013425Y028979D02*
X013425Y028733D01*
X013548Y028856D02*
X013301Y028856D01*
X012548Y028856D02*
X012301Y028856D01*
X012425Y028733D02*
X012425Y028979D01*
X012548Y029101D02*
X012610Y029163D01*
X012610Y029286D01*
X012548Y029348D01*
X012487Y029348D01*
X012425Y029286D01*
X012425Y029224D01*
X012425Y029286D02*
X012363Y029348D01*
X012301Y029348D01*
X012240Y029286D01*
X012240Y029163D01*
X012301Y029101D01*
X012548Y029469D02*
X012548Y029531D01*
X012610Y029531D01*
X012610Y029469D01*
X012548Y029469D01*
X012548Y029653D02*
X012610Y029715D01*
X012610Y029839D01*
X012548Y029900D01*
X012487Y029900D01*
X012425Y029839D01*
X012425Y029777D01*
X012425Y029839D02*
X012363Y029900D01*
X012301Y029900D01*
X012240Y029839D01*
X012240Y029715D01*
X012301Y029653D01*
X012240Y030022D02*
X012487Y030022D01*
X012610Y030145D01*
X012487Y030269D01*
X012240Y030269D01*
X008809Y030843D02*
X008760Y030843D01*
X008663Y030747D01*
X008663Y030843D02*
X008663Y030650D01*
X008562Y030747D02*
X008369Y030747D01*
X008369Y030795D02*
X008417Y030843D01*
X008514Y030843D01*
X008562Y030795D01*
X008562Y030747D01*
X008514Y030650D02*
X008417Y030650D01*
X008369Y030698D01*
X008369Y030795D01*
X008268Y030795D02*
X008219Y030843D01*
X008074Y030843D01*
X008074Y030940D02*
X008074Y030650D01*
X008219Y030650D01*
X008268Y030698D01*
X008268Y030795D01*
X007973Y030795D02*
X007925Y030843D01*
X007876Y030795D01*
X007876Y030650D01*
X007779Y030650D02*
X007779Y030843D01*
X007828Y030843D01*
X007876Y030795D01*
X007973Y030795D02*
X007973Y030650D01*
X007678Y030650D02*
X007678Y030843D01*
X007678Y030650D02*
X007533Y030650D01*
X007485Y030698D01*
X007485Y030843D01*
X007384Y030940D02*
X007384Y030650D01*
X007190Y030940D01*
X007190Y030650D01*
X007090Y030650D02*
X007042Y030698D01*
X007042Y030892D01*
X006994Y030843D02*
X007090Y030843D01*
X006893Y030843D02*
X006845Y030843D01*
X006748Y030747D01*
X006748Y030843D02*
X006748Y030650D01*
X006647Y030650D02*
X006502Y030650D01*
X006453Y030698D01*
X006502Y030747D01*
X006647Y030747D01*
X006647Y030795D02*
X006647Y030650D01*
X006647Y030795D02*
X006599Y030843D01*
X006502Y030843D01*
X006352Y030795D02*
X006304Y030747D01*
X006159Y030747D01*
X006159Y030650D02*
X006159Y030940D01*
X006304Y030940D01*
X006352Y030892D01*
X006352Y030795D01*
X006156Y030460D02*
X006156Y030170D01*
X006011Y030170D01*
X005962Y030218D01*
X005962Y030315D01*
X006011Y030363D01*
X006156Y030363D01*
X005863Y030170D02*
X005766Y030170D01*
X005814Y030170D02*
X005814Y030460D01*
X005766Y030460D01*
X005618Y030460D02*
X005618Y030509D01*
X005618Y030363D02*
X005618Y030170D01*
X005570Y030170D02*
X005666Y030170D01*
X005468Y030170D02*
X005468Y030363D01*
X005570Y030363D02*
X005618Y030363D01*
X005468Y030170D02*
X005323Y030170D01*
X005275Y030218D01*
X005275Y030363D01*
X005174Y030363D02*
X005125Y030315D01*
X004980Y030315D01*
X004980Y030170D02*
X004980Y030460D01*
X005125Y030460D01*
X005174Y030412D01*
X005174Y030363D01*
X005125Y030315D02*
X005174Y030267D01*
X005174Y030218D01*
X005125Y030170D01*
X004980Y030170D01*
X005029Y029980D02*
X005029Y029690D01*
X004928Y029787D02*
X004735Y029787D01*
X004735Y029835D02*
X004783Y029883D01*
X004880Y029883D01*
X004928Y029835D01*
X004928Y029787D01*
X004880Y029690D02*
X004783Y029690D01*
X004735Y029738D01*
X004735Y029835D01*
X004634Y029835D02*
X004634Y029690D01*
X004634Y029835D02*
X004585Y029883D01*
X004440Y029883D01*
X004440Y029690D01*
X004340Y029690D02*
X004244Y029690D01*
X004292Y029690D02*
X004292Y029883D01*
X004244Y029883D01*
X004292Y029980D02*
X004292Y030029D01*
X004142Y029835D02*
X004142Y029690D01*
X004142Y029835D02*
X004094Y029883D01*
X003997Y029883D01*
X003949Y029835D01*
X003848Y029883D02*
X003703Y029883D01*
X003654Y029835D01*
X003654Y029738D01*
X003703Y029690D01*
X003848Y029690D01*
X003949Y029690D02*
X003949Y029980D01*
X003995Y030170D02*
X003802Y030460D01*
X003995Y030460D02*
X003802Y030170D01*
X003703Y030170D02*
X003654Y030170D01*
X003654Y030218D01*
X003703Y030218D01*
X003703Y030170D01*
X003553Y030170D02*
X003360Y030460D01*
X003258Y030460D02*
X003258Y030267D01*
X003162Y030170D01*
X003065Y030267D01*
X003065Y030460D01*
X003065Y030650D02*
X003065Y030940D01*
X003210Y030940D01*
X003258Y030892D01*
X003258Y030795D01*
X003210Y030747D01*
X003065Y030747D01*
X003360Y030698D02*
X003408Y030747D01*
X003553Y030747D01*
X003553Y030795D02*
X003553Y030650D01*
X003408Y030650D01*
X003360Y030698D01*
X003408Y030843D02*
X003505Y030843D01*
X003553Y030795D01*
X003654Y030747D02*
X003751Y030843D01*
X003799Y030843D01*
X003900Y030843D02*
X003997Y030843D01*
X003948Y030892D02*
X003948Y030698D01*
X003997Y030650D01*
X004096Y030650D02*
X004096Y030940D01*
X004290Y030650D01*
X004290Y030940D01*
X004439Y030843D02*
X004536Y030843D01*
X004584Y030795D01*
X004584Y030650D01*
X004439Y030650D01*
X004391Y030698D01*
X004439Y030747D01*
X004584Y030747D01*
X004686Y030650D02*
X004686Y030843D01*
X004734Y030843D01*
X004782Y030795D01*
X004831Y030843D01*
X004879Y030795D01*
X004879Y030650D01*
X004782Y030650D02*
X004782Y030795D01*
X004980Y030795D02*
X005029Y030843D01*
X005125Y030843D01*
X005174Y030795D01*
X005174Y030747D01*
X004980Y030747D01*
X004980Y030795D02*
X004980Y030698D01*
X005029Y030650D01*
X005125Y030650D01*
X005570Y030795D02*
X005763Y030795D01*
X006552Y030460D02*
X006745Y030170D01*
X006552Y030170D02*
X006745Y030460D01*
X006846Y029980D02*
X006846Y029690D01*
X006943Y029787D01*
X007040Y029690D01*
X007040Y029980D01*
X007189Y029883D02*
X007286Y029883D01*
X007335Y029835D01*
X007335Y029690D01*
X007189Y029690D01*
X007141Y029738D01*
X007189Y029787D01*
X007335Y029787D01*
X007436Y029690D02*
X007532Y029690D01*
X007484Y029690D02*
X007484Y029980D01*
X007436Y029980D01*
X007632Y029980D02*
X007632Y029690D01*
X007632Y029787D02*
X007777Y029883D01*
X007878Y029835D02*
X007926Y029883D01*
X008023Y029883D01*
X008071Y029835D01*
X008071Y029787D01*
X007878Y029787D01*
X007878Y029835D02*
X007878Y029738D01*
X007926Y029690D01*
X008023Y029690D01*
X008172Y029690D02*
X008172Y029883D01*
X008172Y029787D02*
X008269Y029883D01*
X008317Y029883D01*
X008418Y029980D02*
X008515Y029883D01*
X008515Y029787D01*
X008418Y029690D01*
X007777Y029690D02*
X007632Y029787D01*
X006747Y029738D02*
X006747Y029690D01*
X006699Y029690D01*
X006699Y029738D01*
X006747Y029738D01*
X006598Y029690D02*
X006501Y029787D01*
X006550Y029787D02*
X006404Y029787D01*
X006404Y029690D02*
X006404Y029980D01*
X006550Y029980D01*
X006598Y029932D01*
X006598Y029835D01*
X006550Y029787D01*
X006305Y029690D02*
X006208Y029787D01*
X006208Y029883D01*
X006305Y029980D01*
X005812Y029835D02*
X005812Y029690D01*
X005715Y029690D02*
X005715Y029835D01*
X005764Y029883D01*
X005812Y029835D01*
X005715Y029835D02*
X005667Y029883D01*
X005619Y029883D01*
X005619Y029690D01*
X005517Y029690D02*
X005517Y029883D01*
X005517Y029690D02*
X005372Y029690D01*
X005324Y029738D01*
X005324Y029883D01*
X005223Y029835D02*
X005029Y029835D01*
X005223Y029980D02*
X005223Y029690D01*
X004584Y030315D02*
X004391Y030315D01*
X003654Y030650D02*
X003654Y030843D01*
X003703Y031130D02*
X003654Y031178D01*
X003654Y031275D01*
X003703Y031323D01*
X003848Y031323D01*
X003848Y031420D02*
X003848Y031130D01*
X003703Y031130D01*
X003553Y031178D02*
X003553Y031275D01*
X003505Y031323D01*
X003408Y031323D01*
X003360Y031275D01*
X003360Y031178D01*
X003408Y031130D01*
X003505Y031130D01*
X003553Y031178D01*
X003258Y031130D02*
X003258Y031420D01*
X003162Y031323D01*
X003065Y031420D01*
X003065Y031130D01*
X003553Y030460D02*
X003360Y030170D01*
X003258Y029980D02*
X003258Y029690D01*
X003360Y029738D02*
X003408Y029787D01*
X003553Y029787D01*
X003553Y029835D02*
X003553Y029690D01*
X003408Y029690D01*
X003360Y029738D01*
X003408Y029883D02*
X003505Y029883D01*
X003553Y029835D01*
X003258Y029980D02*
X003162Y029883D01*
X003065Y029980D01*
X003065Y029690D01*
X003997Y031130D02*
X003949Y031178D01*
X003997Y031130D02*
X004094Y031130D01*
X004142Y031178D01*
X004142Y031227D01*
X004094Y031275D01*
X003997Y031275D01*
X003949Y031323D01*
X003949Y031372D01*
X003997Y031420D01*
X004094Y031420D01*
X004142Y031372D01*
X004244Y031323D02*
X004437Y031130D01*
X004244Y031130D02*
X004437Y031323D01*
D11*
X001650Y004125D02*
X001900Y003875D01*
X002400Y003875D01*
X002650Y004125D01*
X002650Y004625D01*
X002400Y004875D01*
X002650Y005125D01*
X002650Y005625D01*
X002400Y005875D01*
X001900Y005875D01*
X001650Y005625D01*
X001650Y005125D01*
X001900Y004875D01*
X002400Y004875D01*
X001900Y004875D02*
X001650Y004625D01*
X001650Y004125D01*
X001900Y005875D02*
X001650Y006125D01*
X001650Y006625D01*
X001900Y006875D01*
X001650Y007125D01*
X001650Y007625D01*
X001900Y007875D01*
X001650Y008125D01*
X001650Y008625D01*
X001900Y008875D01*
X002400Y008875D01*
X002650Y008625D01*
X002650Y008125D01*
X002400Y007875D01*
X002650Y007625D01*
X002650Y007125D01*
X002400Y006875D01*
X002650Y006625D01*
X002650Y006125D01*
X002400Y005875D01*
X002400Y006875D02*
X001900Y006875D01*
X001900Y007875D02*
X002400Y007875D01*
X002975Y007625D02*
X002975Y007125D01*
X003225Y006875D01*
X004725Y006875D01*
X004975Y007125D01*
X004975Y007625D01*
X004725Y007875D01*
X003225Y007875D01*
X002975Y008125D01*
X002975Y008625D01*
X003225Y008875D01*
X004725Y008875D01*
X004975Y008625D01*
X004975Y008125D01*
X004725Y007875D01*
X003225Y007875D02*
X002975Y007625D01*
X002400Y008875D02*
X002650Y009125D01*
X002650Y009625D01*
X002400Y009875D01*
X002650Y010125D01*
X002650Y010625D01*
X002400Y010875D01*
X002650Y011125D01*
X002650Y011625D01*
X002400Y011875D01*
X001900Y011875D01*
X001650Y011625D01*
X001650Y011125D01*
X001900Y010875D01*
X002400Y010875D01*
X001900Y010875D02*
X001650Y010625D01*
X001650Y010125D01*
X001900Y009875D01*
X002400Y009875D01*
X001900Y009875D02*
X001650Y009625D01*
X001650Y009125D01*
X001900Y008875D01*
X004125Y012250D02*
X004825Y012250D01*
X004842Y012252D01*
X004859Y012256D01*
X004875Y012263D01*
X004889Y012273D01*
X004902Y012286D01*
X004912Y012300D01*
X004919Y012316D01*
X004923Y012333D01*
X004925Y012350D01*
X004925Y012500D01*
X004875Y012550D01*
X004875Y014450D01*
X004925Y014500D01*
X004925Y014650D01*
X004923Y014667D01*
X004919Y014684D01*
X004912Y014700D01*
X004902Y014714D01*
X004889Y014727D01*
X004875Y014737D01*
X004859Y014744D01*
X004842Y014748D01*
X004825Y014750D01*
X004125Y014750D01*
X004108Y014748D01*
X004091Y014744D01*
X004075Y014737D01*
X004061Y014727D01*
X004048Y014714D01*
X004038Y014700D01*
X004031Y014684D01*
X004027Y014667D01*
X004025Y014650D01*
X004025Y014500D01*
X004075Y014450D01*
X004075Y012550D01*
X004025Y012500D01*
X004025Y012350D01*
X004027Y012333D01*
X004031Y012316D01*
X004038Y012300D01*
X004048Y012286D01*
X004061Y012273D01*
X004075Y012263D01*
X004091Y012256D01*
X004108Y012252D01*
X004125Y012250D01*
X008350Y012900D02*
X008350Y013600D01*
X008352Y013617D01*
X008356Y013634D01*
X008363Y013650D01*
X008373Y013664D01*
X008386Y013677D01*
X008400Y013687D01*
X008416Y013694D01*
X008433Y013698D01*
X008450Y013700D01*
X008600Y013700D01*
X008650Y013650D01*
X010550Y013650D01*
X010600Y013700D01*
X010750Y013700D01*
X010767Y013698D01*
X010784Y013694D01*
X010800Y013687D01*
X010814Y013677D01*
X010827Y013664D01*
X010837Y013650D01*
X010844Y013634D01*
X010848Y013617D01*
X010850Y013600D01*
X010850Y012900D01*
X010848Y012883D01*
X010844Y012866D01*
X010837Y012850D01*
X010827Y012836D01*
X010814Y012823D01*
X010800Y012813D01*
X010784Y012806D01*
X010767Y012802D01*
X010750Y012800D01*
X010600Y012800D01*
X010550Y012850D01*
X008650Y012850D01*
X008600Y012800D01*
X008450Y012800D01*
X008433Y012802D01*
X008416Y012806D01*
X008400Y012813D01*
X008386Y012823D01*
X008373Y012836D01*
X008363Y012850D01*
X008356Y012866D01*
X008352Y012883D01*
X008350Y012900D01*
X008450Y011575D02*
X008600Y011575D01*
X008650Y011525D01*
X010550Y011525D01*
X010600Y011575D01*
X010750Y011575D01*
X010767Y011573D01*
X010784Y011569D01*
X010800Y011562D01*
X010814Y011552D01*
X010827Y011539D01*
X010837Y011525D01*
X010844Y011509D01*
X010848Y011492D01*
X010850Y011475D01*
X010850Y010775D01*
X010848Y010758D01*
X010844Y010741D01*
X010837Y010725D01*
X010827Y010711D01*
X010814Y010698D01*
X010800Y010688D01*
X010784Y010681D01*
X010767Y010677D01*
X010750Y010675D01*
X010600Y010675D01*
X010550Y010725D01*
X008650Y010725D01*
X008600Y010675D01*
X008450Y010675D01*
X008433Y010677D01*
X008416Y010681D01*
X008400Y010688D01*
X008386Y010698D01*
X008373Y010711D01*
X008363Y010725D01*
X008356Y010741D01*
X008352Y010758D01*
X008350Y010775D01*
X008350Y011475D01*
X008352Y011492D01*
X008356Y011509D01*
X008363Y011525D01*
X008373Y011539D01*
X008386Y011552D01*
X008400Y011562D01*
X008416Y011569D01*
X008433Y011573D01*
X008450Y011575D01*
X008450Y009200D02*
X008600Y009200D01*
X008650Y009150D01*
X010550Y009150D01*
X010600Y009200D01*
X010750Y009200D01*
X010767Y009198D01*
X010784Y009194D01*
X010800Y009187D01*
X010814Y009177D01*
X010827Y009164D01*
X010837Y009150D01*
X010844Y009134D01*
X010848Y009117D01*
X010850Y009100D01*
X010850Y008400D01*
X010848Y008383D01*
X010844Y008366D01*
X010837Y008350D01*
X010827Y008336D01*
X010814Y008323D01*
X010800Y008313D01*
X010784Y008306D01*
X010767Y008302D01*
X010750Y008300D01*
X010600Y008300D01*
X010550Y008350D01*
X008650Y008350D01*
X008600Y008300D01*
X008450Y008300D01*
X008433Y008302D01*
X008416Y008306D01*
X008400Y008313D01*
X008386Y008323D01*
X008373Y008336D01*
X008363Y008350D01*
X008356Y008366D01*
X008352Y008383D01*
X008350Y008400D01*
X008350Y009100D01*
X008352Y009117D01*
X008356Y009134D01*
X008363Y009150D01*
X008373Y009164D01*
X008386Y009177D01*
X008400Y009187D01*
X008416Y009194D01*
X008433Y009198D01*
X008450Y009200D01*
X009700Y007325D02*
X009850Y007325D01*
X009900Y007275D01*
X011800Y007275D01*
X011850Y007325D01*
X012000Y007325D01*
X012017Y007323D01*
X012034Y007319D01*
X012050Y007312D01*
X012064Y007302D01*
X012077Y007289D01*
X012087Y007275D01*
X012094Y007259D01*
X012098Y007242D01*
X012100Y007225D01*
X012100Y006525D01*
X012098Y006508D01*
X012094Y006491D01*
X012087Y006475D01*
X012077Y006461D01*
X012064Y006448D01*
X012050Y006438D01*
X012034Y006431D01*
X012017Y006427D01*
X012000Y006425D01*
X011850Y006425D01*
X011800Y006475D01*
X009900Y006475D01*
X009850Y006425D01*
X009700Y006425D01*
X009683Y006427D01*
X009666Y006431D01*
X009650Y006438D01*
X009636Y006448D01*
X009623Y006461D01*
X009613Y006475D01*
X009606Y006491D01*
X009602Y006508D01*
X009600Y006525D01*
X009600Y007225D01*
X009602Y007242D01*
X009606Y007259D01*
X009613Y007275D01*
X009623Y007289D01*
X009636Y007302D01*
X009650Y007312D01*
X009666Y007319D01*
X009683Y007323D01*
X009700Y007325D01*
X009350Y003750D02*
X008350Y003750D01*
X008350Y002750D01*
X009350Y002750D01*
X010350Y002750D01*
X011350Y002750D01*
X012350Y002750D01*
X012350Y003750D01*
X011350Y003750D01*
X010350Y003750D01*
X009350Y003750D01*
X009350Y002750D01*
X010350Y002750D02*
X010350Y003750D01*
X011350Y003750D02*
X011350Y002750D01*
X014600Y002750D02*
X015600Y002750D01*
X016600Y002750D01*
X016600Y003750D01*
X015600Y003750D01*
X014600Y003750D01*
X014600Y002750D01*
X015600Y002750D02*
X015600Y003750D01*
X018225Y004125D02*
X018227Y004188D01*
X018233Y004250D01*
X018243Y004312D01*
X018256Y004374D01*
X018274Y004434D01*
X018295Y004493D01*
X018320Y004551D01*
X018349Y004607D01*
X018381Y004661D01*
X018416Y004713D01*
X018454Y004762D01*
X018496Y004810D01*
X018540Y004854D01*
X018588Y004896D01*
X018637Y004934D01*
X018689Y004969D01*
X018743Y005001D01*
X018799Y005030D01*
X018857Y005055D01*
X018916Y005076D01*
X018976Y005094D01*
X019038Y005107D01*
X019100Y005117D01*
X019162Y005123D01*
X019225Y005125D01*
X019288Y005123D01*
X019350Y005117D01*
X019412Y005107D01*
X019474Y005094D01*
X019534Y005076D01*
X019593Y005055D01*
X019651Y005030D01*
X019707Y005001D01*
X019761Y004969D01*
X019813Y004934D01*
X019862Y004896D01*
X019910Y004854D01*
X019954Y004810D01*
X019996Y004762D01*
X020034Y004713D01*
X020069Y004661D01*
X020101Y004607D01*
X020130Y004551D01*
X020155Y004493D01*
X020176Y004434D01*
X020194Y004374D01*
X020207Y004312D01*
X020217Y004250D01*
X020223Y004188D01*
X020225Y004125D01*
X020223Y004062D01*
X020217Y004000D01*
X020207Y003938D01*
X020194Y003876D01*
X020176Y003816D01*
X020155Y003757D01*
X020130Y003699D01*
X020101Y003643D01*
X020069Y003589D01*
X020034Y003537D01*
X019996Y003488D01*
X019954Y003440D01*
X019910Y003396D01*
X019862Y003354D01*
X019813Y003316D01*
X019761Y003281D01*
X019707Y003249D01*
X019651Y003220D01*
X019593Y003195D01*
X019534Y003174D01*
X019474Y003156D01*
X019412Y003143D01*
X019350Y003133D01*
X019288Y003127D01*
X019225Y003125D01*
X019162Y003127D01*
X019100Y003133D01*
X019038Y003143D01*
X018976Y003156D01*
X018916Y003174D01*
X018857Y003195D01*
X018799Y003220D01*
X018743Y003249D01*
X018689Y003281D01*
X018637Y003316D01*
X018588Y003354D01*
X018540Y003396D01*
X018496Y003440D01*
X018454Y003488D01*
X018416Y003537D01*
X018381Y003589D01*
X018349Y003643D01*
X018320Y003699D01*
X018295Y003757D01*
X018274Y003816D01*
X018256Y003876D01*
X018243Y003938D01*
X018233Y004000D01*
X018227Y004062D01*
X018225Y004125D01*
X020325Y006300D02*
X020475Y006300D01*
X020525Y006350D01*
X022425Y006350D01*
X022475Y006300D01*
X022625Y006300D01*
X022642Y006302D01*
X022659Y006306D01*
X022675Y006313D01*
X022689Y006323D01*
X022702Y006336D01*
X022712Y006350D01*
X022719Y006366D01*
X022723Y006383D01*
X022725Y006400D01*
X022725Y007100D01*
X022723Y007117D01*
X022719Y007134D01*
X022712Y007150D01*
X022702Y007164D01*
X022689Y007177D01*
X022675Y007187D01*
X022659Y007194D01*
X022642Y007198D01*
X022625Y007200D01*
X022475Y007200D01*
X022425Y007150D01*
X020525Y007150D01*
X020475Y007200D01*
X020325Y007200D01*
X020308Y007198D01*
X020291Y007194D01*
X020275Y007187D01*
X020261Y007177D01*
X020248Y007164D01*
X020238Y007150D01*
X020231Y007134D01*
X020227Y007117D01*
X020225Y007100D01*
X020225Y006400D01*
X020227Y006383D01*
X020231Y006366D01*
X020238Y006350D01*
X020248Y006336D01*
X020261Y006323D01*
X020275Y006313D01*
X020291Y006306D01*
X020308Y006302D01*
X020325Y006300D01*
X020675Y008975D02*
X022275Y008975D01*
X022292Y008977D01*
X022309Y008981D01*
X022325Y008988D01*
X022339Y008998D01*
X022352Y009011D01*
X022362Y009025D01*
X022369Y009041D01*
X022373Y009058D01*
X022375Y009075D01*
X022375Y009675D01*
X022373Y009692D01*
X022369Y009709D01*
X022362Y009725D01*
X022352Y009739D01*
X022339Y009752D01*
X022325Y009762D01*
X022309Y009769D01*
X022292Y009773D01*
X022275Y009775D01*
X020675Y009775D01*
X020658Y009773D01*
X020641Y009769D01*
X020625Y009762D01*
X020611Y009752D01*
X020598Y009739D01*
X020588Y009725D01*
X020581Y009709D01*
X020577Y009692D01*
X020575Y009675D01*
X020575Y009075D01*
X020577Y009058D01*
X020581Y009041D01*
X020588Y009025D01*
X020598Y009011D01*
X020611Y008998D01*
X020625Y008988D01*
X020641Y008981D01*
X020658Y008977D01*
X020675Y008975D01*
X021225Y009375D02*
X021475Y009375D01*
X021475Y009125D01*
X021475Y009375D02*
X021475Y009625D01*
X021475Y009375D02*
X021875Y009625D01*
X021875Y009125D01*
X021475Y009375D01*
X022075Y009375D01*
X022275Y011350D02*
X020675Y011350D01*
X020658Y011352D01*
X020641Y011356D01*
X020625Y011363D01*
X020611Y011373D01*
X020598Y011386D01*
X020588Y011400D01*
X020581Y011416D01*
X020577Y011433D01*
X020575Y011450D01*
X020575Y012050D01*
X020577Y012067D01*
X020581Y012084D01*
X020588Y012100D01*
X020598Y012114D01*
X020611Y012127D01*
X020625Y012137D01*
X020641Y012144D01*
X020658Y012148D01*
X020675Y012150D01*
X022275Y012150D01*
X022292Y012148D01*
X022309Y012144D01*
X022325Y012137D01*
X022339Y012127D01*
X022352Y012114D01*
X022362Y012100D01*
X022369Y012084D01*
X022373Y012067D01*
X022375Y012050D01*
X022375Y011450D01*
X022373Y011433D01*
X022369Y011416D01*
X022362Y011400D01*
X022352Y011386D01*
X022339Y011373D01*
X022325Y011363D01*
X022309Y011356D01*
X022292Y011352D01*
X022275Y011350D01*
X021875Y011500D02*
X021475Y011750D01*
X021475Y012000D01*
X021575Y012000D01*
X021475Y011750D02*
X021225Y011750D01*
X021475Y011750D02*
X021475Y011500D01*
X021475Y011750D02*
X021875Y012000D01*
X021875Y011500D01*
X022075Y011750D02*
X021475Y011750D01*
X020675Y013725D02*
X022275Y013725D01*
X022292Y013727D01*
X022309Y013731D01*
X022325Y013738D01*
X022339Y013748D01*
X022352Y013761D01*
X022362Y013775D01*
X022369Y013791D01*
X022373Y013808D01*
X022375Y013825D01*
X022375Y014425D01*
X022373Y014442D01*
X022369Y014459D01*
X022362Y014475D01*
X022352Y014489D01*
X022339Y014502D01*
X022325Y014512D01*
X022309Y014519D01*
X022292Y014523D01*
X022275Y014525D01*
X020675Y014525D01*
X020658Y014523D01*
X020641Y014519D01*
X020625Y014512D01*
X020611Y014502D01*
X020598Y014489D01*
X020588Y014475D01*
X020581Y014459D01*
X020577Y014442D01*
X020575Y014425D01*
X020575Y013825D01*
X020577Y013808D01*
X020581Y013791D01*
X020588Y013775D01*
X020598Y013761D01*
X020611Y013748D01*
X020625Y013738D01*
X020641Y013731D01*
X020658Y013727D01*
X020675Y013725D01*
X021225Y014125D02*
X021475Y014125D01*
X021475Y014375D01*
X021575Y014375D01*
X021475Y014125D02*
X021475Y013875D01*
X021475Y014125D02*
X021875Y014375D01*
X021875Y013875D01*
X021475Y014125D01*
X022075Y014125D01*
X022575Y015300D02*
X023375Y015300D01*
X023392Y015302D01*
X023409Y015306D01*
X023425Y015313D01*
X023439Y015323D01*
X023452Y015336D01*
X023462Y015350D01*
X023469Y015366D01*
X023473Y015383D01*
X023475Y015400D01*
X023475Y017100D01*
X023473Y017117D01*
X023469Y017134D01*
X023462Y017150D01*
X023452Y017164D01*
X023439Y017177D01*
X023425Y017187D01*
X023409Y017194D01*
X023392Y017198D01*
X023375Y017200D01*
X022575Y017200D01*
X022558Y017198D01*
X022541Y017194D01*
X022525Y017187D01*
X022511Y017177D01*
X022498Y017164D01*
X022488Y017150D01*
X022481Y017134D01*
X022477Y017117D01*
X022475Y017100D01*
X022475Y015400D01*
X022477Y015383D01*
X022481Y015366D01*
X022488Y015350D01*
X022498Y015336D01*
X022511Y015323D01*
X022525Y015313D01*
X022541Y015306D01*
X022558Y015302D01*
X022575Y015300D01*
X022975Y016100D02*
X022975Y016150D01*
X022975Y016350D02*
X022975Y016400D01*
X024825Y016200D02*
X024825Y017800D01*
X024827Y017817D01*
X024831Y017834D01*
X024838Y017850D01*
X024848Y017864D01*
X024861Y017877D01*
X024875Y017887D01*
X024891Y017894D01*
X024908Y017898D01*
X024925Y017900D01*
X025525Y017900D01*
X025542Y017898D01*
X025559Y017894D01*
X025575Y017887D01*
X025589Y017877D01*
X025602Y017864D01*
X025612Y017850D01*
X025619Y017834D01*
X025623Y017817D01*
X025625Y017800D01*
X025625Y016200D01*
X025623Y016183D01*
X025619Y016166D01*
X025612Y016150D01*
X025602Y016136D01*
X025589Y016123D01*
X025575Y016113D01*
X025559Y016106D01*
X025542Y016102D01*
X025525Y016100D01*
X024925Y016100D01*
X024908Y016102D01*
X024891Y016106D01*
X024875Y016113D01*
X024861Y016123D01*
X024848Y016136D01*
X024838Y016150D01*
X024831Y016166D01*
X024827Y016183D01*
X024825Y016200D01*
X024975Y016600D02*
X025225Y017000D01*
X024975Y017000D01*
X025225Y017000D02*
X025475Y017000D01*
X025225Y017000D02*
X025225Y016400D01*
X025475Y016600D02*
X024975Y016600D01*
X025225Y017000D02*
X025475Y016600D01*
X025225Y017000D02*
X025225Y017250D01*
X023475Y019475D02*
X023475Y021775D01*
X019475Y021775D01*
X019475Y021025D01*
X019514Y021023D01*
X019553Y021017D01*
X019591Y021008D01*
X019628Y020995D01*
X019664Y020978D01*
X019697Y020958D01*
X019729Y020934D01*
X019758Y020908D01*
X019784Y020879D01*
X019808Y020847D01*
X019828Y020814D01*
X019845Y020778D01*
X019858Y020741D01*
X019867Y020703D01*
X019873Y020664D01*
X019875Y020625D01*
X019873Y020586D01*
X019867Y020547D01*
X019858Y020509D01*
X019845Y020472D01*
X019828Y020436D01*
X019808Y020403D01*
X019784Y020371D01*
X019758Y020342D01*
X019729Y020316D01*
X019697Y020292D01*
X019664Y020272D01*
X019628Y020255D01*
X019591Y020242D01*
X019553Y020233D01*
X019514Y020227D01*
X019475Y020225D01*
X019475Y019475D01*
X023475Y019475D01*
X026850Y021125D02*
X026850Y021625D01*
X027100Y021875D01*
X028600Y021875D01*
X028850Y021625D01*
X028850Y021125D01*
X028600Y020875D01*
X027100Y020875D01*
X026850Y021125D01*
X027100Y021875D02*
X026850Y022125D01*
X026850Y022625D01*
X027100Y022875D01*
X028600Y022875D01*
X028850Y022625D01*
X028850Y022125D01*
X028600Y021875D01*
X029150Y022125D02*
X029150Y022625D01*
X029400Y022875D01*
X029900Y022875D01*
X030150Y022625D01*
X030150Y022125D01*
X029900Y021875D01*
X030150Y021625D01*
X030150Y021125D01*
X029900Y020875D01*
X029400Y020875D01*
X029150Y021125D01*
X029150Y021625D01*
X029400Y021875D01*
X029150Y022125D01*
X029400Y021875D02*
X029900Y021875D01*
X029900Y022875D02*
X030150Y023125D01*
X030150Y023625D01*
X029900Y023875D01*
X030150Y024125D01*
X030150Y024625D01*
X029900Y024875D01*
X030150Y025125D01*
X030150Y025625D01*
X029900Y025875D01*
X029400Y025875D01*
X029150Y025625D01*
X029150Y025125D01*
X029400Y024875D01*
X029900Y024875D01*
X029400Y024875D02*
X029150Y024625D01*
X029150Y024125D01*
X029400Y023875D01*
X029900Y023875D01*
X029400Y023875D02*
X029150Y023625D01*
X029150Y023125D01*
X029400Y022875D01*
X029400Y025875D02*
X029150Y026125D01*
X029150Y026625D01*
X029400Y026875D01*
X029150Y027125D01*
X029150Y027625D01*
X029400Y027875D01*
X029150Y028125D01*
X029150Y028625D01*
X029400Y028875D01*
X029900Y028875D01*
X030150Y028625D01*
X030150Y028125D01*
X029900Y027875D01*
X030150Y027625D01*
X030150Y027125D01*
X029900Y026875D01*
X030150Y026625D01*
X030150Y026125D01*
X029900Y025875D01*
X029900Y026875D02*
X029400Y026875D01*
X029400Y027875D02*
X029900Y027875D01*
X027800Y028250D02*
X027800Y028400D01*
X027798Y028417D01*
X027794Y028434D01*
X027787Y028450D01*
X027777Y028464D01*
X027764Y028477D01*
X027750Y028487D01*
X027734Y028494D01*
X027717Y028498D01*
X027700Y028500D01*
X027000Y028500D01*
X026983Y028498D01*
X026966Y028494D01*
X026950Y028487D01*
X026936Y028477D01*
X026923Y028464D01*
X026913Y028450D01*
X026906Y028434D01*
X026902Y028417D01*
X026900Y028400D01*
X026900Y028250D01*
X026950Y028200D01*
X026950Y026300D01*
X026900Y026250D01*
X026900Y026100D01*
X026902Y026083D01*
X026906Y026066D01*
X026913Y026050D01*
X026923Y026036D01*
X026936Y026023D01*
X026950Y026013D01*
X026966Y026006D01*
X026983Y026002D01*
X027000Y026000D01*
X027700Y026000D01*
X027717Y026002D01*
X027734Y026006D01*
X027750Y026013D01*
X027764Y026023D01*
X027777Y026036D01*
X027787Y026050D01*
X027794Y026066D01*
X027798Y026083D01*
X027800Y026100D01*
X027800Y026250D01*
X027750Y026300D01*
X027750Y028200D01*
X027800Y028250D01*
X025850Y028150D02*
X025850Y025850D01*
X021850Y025850D01*
X021850Y026600D01*
X021889Y026602D01*
X021928Y026608D01*
X021966Y026617D01*
X022003Y026630D01*
X022039Y026647D01*
X022072Y026667D01*
X022104Y026691D01*
X022133Y026717D01*
X022159Y026746D01*
X022183Y026778D01*
X022203Y026811D01*
X022220Y026847D01*
X022233Y026884D01*
X022242Y026922D01*
X022248Y026961D01*
X022250Y027000D01*
X022248Y027039D01*
X022242Y027078D01*
X022233Y027116D01*
X022220Y027153D01*
X022203Y027189D01*
X022183Y027222D01*
X022159Y027254D01*
X022133Y027283D01*
X022104Y027309D01*
X022072Y027333D01*
X022039Y027353D01*
X022003Y027370D01*
X021966Y027383D01*
X021928Y027392D01*
X021889Y027398D01*
X021850Y027400D01*
X021850Y028150D01*
X025850Y028150D01*
X021425Y024650D02*
X021425Y023850D01*
X021423Y023833D01*
X021419Y023816D01*
X021412Y023800D01*
X021402Y023786D01*
X021389Y023773D01*
X021375Y023763D01*
X021359Y023756D01*
X021342Y023752D01*
X021325Y023750D01*
X019625Y023750D01*
X019608Y023752D01*
X019591Y023756D01*
X019575Y023763D01*
X019561Y023773D01*
X019548Y023786D01*
X019538Y023800D01*
X019531Y023816D01*
X019527Y023833D01*
X019525Y023850D01*
X019525Y024650D01*
X019527Y024667D01*
X019531Y024684D01*
X019538Y024700D01*
X019548Y024714D01*
X019561Y024727D01*
X019575Y024737D01*
X019591Y024744D01*
X019608Y024748D01*
X019625Y024750D01*
X021325Y024750D01*
X021342Y024748D01*
X021359Y024744D01*
X021375Y024737D01*
X021389Y024727D01*
X021402Y024714D01*
X021412Y024700D01*
X021419Y024684D01*
X021423Y024667D01*
X021425Y024650D01*
X020625Y024250D02*
X020575Y024250D01*
X020375Y024250D02*
X020325Y024250D01*
X016950Y027175D02*
X014750Y027175D01*
X014750Y012575D01*
X015600Y012575D01*
X015602Y012605D01*
X015607Y012635D01*
X015616Y012664D01*
X015629Y012691D01*
X015644Y012717D01*
X015663Y012741D01*
X015684Y012762D01*
X015708Y012781D01*
X015734Y012796D01*
X015761Y012809D01*
X015790Y012818D01*
X015820Y012823D01*
X015850Y012825D01*
X015880Y012823D01*
X015910Y012818D01*
X015939Y012809D01*
X015966Y012796D01*
X015992Y012781D01*
X016016Y012762D01*
X016037Y012741D01*
X016056Y012717D01*
X016071Y012691D01*
X016084Y012664D01*
X016093Y012635D01*
X016098Y012605D01*
X016100Y012575D01*
X016950Y012575D01*
X016950Y027175D01*
X017150Y030475D02*
X016900Y030725D01*
X016650Y030475D01*
X016150Y030475D01*
X015900Y030725D01*
X015650Y030475D01*
X015150Y030475D01*
X014900Y030725D01*
X014650Y030475D01*
X014150Y030475D01*
X013900Y030725D01*
X013650Y030475D01*
X013150Y030475D01*
X012900Y030725D01*
X012650Y030475D01*
X012150Y030475D01*
X011900Y030725D01*
X011900Y031225D01*
X012150Y031475D01*
X012650Y031475D01*
X012900Y031225D01*
X013150Y031475D01*
X013650Y031475D01*
X013900Y031225D01*
X013900Y030725D01*
X013900Y031225D02*
X014150Y031475D01*
X014650Y031475D01*
X014900Y031225D01*
X015150Y031475D01*
X015650Y031475D01*
X015900Y031225D01*
X016150Y031475D01*
X016650Y031475D01*
X016900Y031225D01*
X016900Y030725D01*
X017150Y030475D02*
X017650Y030475D01*
X017900Y030725D01*
X018150Y030475D01*
X018650Y030475D01*
X018900Y030725D01*
X019150Y030475D01*
X019650Y030475D01*
X019900Y030725D01*
X019900Y031225D01*
X019650Y031475D01*
X019150Y031475D01*
X018900Y031225D01*
X018900Y030725D01*
X018900Y031225D02*
X018650Y031475D01*
X018150Y031475D01*
X017900Y031225D01*
X017900Y030725D01*
X017900Y031225D02*
X017650Y031475D01*
X017150Y031475D01*
X016900Y031225D01*
X015900Y031225D02*
X015900Y030725D01*
X014900Y030725D02*
X014900Y031225D01*
X012900Y031225D02*
X012900Y030725D01*
X011875Y021950D02*
X011075Y021950D01*
X011058Y021948D01*
X011041Y021944D01*
X011025Y021937D01*
X011011Y021927D01*
X010998Y021914D01*
X010988Y021900D01*
X010981Y021884D01*
X010977Y021867D01*
X010975Y021850D01*
X010975Y020150D01*
X010977Y020133D01*
X010981Y020116D01*
X010988Y020100D01*
X010998Y020086D01*
X011011Y020073D01*
X011025Y020063D01*
X011041Y020056D01*
X011058Y020052D01*
X011075Y020050D01*
X011875Y020050D01*
X011892Y020052D01*
X011909Y020056D01*
X011925Y020063D01*
X011939Y020073D01*
X011952Y020086D01*
X011962Y020100D01*
X011969Y020116D01*
X011973Y020133D01*
X011975Y020150D01*
X011975Y021850D01*
X011973Y021867D01*
X011969Y021884D01*
X011962Y021900D01*
X011952Y021914D01*
X011939Y021927D01*
X011925Y021937D01*
X011909Y021944D01*
X011892Y021948D01*
X011875Y021950D01*
X011475Y021150D02*
X011475Y021100D01*
X011475Y020900D02*
X011475Y020850D01*
X009350Y020150D02*
X009350Y021850D01*
X009348Y021867D01*
X009344Y021884D01*
X009337Y021900D01*
X009327Y021914D01*
X009314Y021927D01*
X009300Y021937D01*
X009284Y021944D01*
X009267Y021948D01*
X009250Y021950D01*
X008450Y021950D01*
X008433Y021948D01*
X008416Y021944D01*
X008400Y021937D01*
X008386Y021927D01*
X008373Y021914D01*
X008363Y021900D01*
X008356Y021884D01*
X008352Y021867D01*
X008350Y021850D01*
X008350Y020150D01*
X008352Y020133D01*
X008356Y020116D01*
X008363Y020100D01*
X008373Y020086D01*
X008386Y020073D01*
X008400Y020063D01*
X008416Y020056D01*
X008433Y020052D01*
X008450Y020050D01*
X009250Y020050D01*
X009267Y020052D01*
X009284Y020056D01*
X009300Y020063D01*
X009314Y020073D01*
X009327Y020086D01*
X009337Y020100D01*
X009344Y020116D01*
X009348Y020133D01*
X009350Y020150D01*
X008850Y020850D02*
X008850Y020900D01*
X008850Y021100D02*
X008850Y021150D01*
X008675Y018650D02*
X010275Y018650D01*
X010292Y018648D01*
X010309Y018644D01*
X010325Y018637D01*
X010339Y018627D01*
X010352Y018614D01*
X010362Y018600D01*
X010369Y018584D01*
X010373Y018567D01*
X010375Y018550D01*
X010375Y017950D01*
X010373Y017933D01*
X010369Y017916D01*
X010362Y017900D01*
X010352Y017886D01*
X010339Y017873D01*
X010325Y017863D01*
X010309Y017856D01*
X010292Y017852D01*
X010275Y017850D01*
X008675Y017850D01*
X008658Y017852D01*
X008641Y017856D01*
X008625Y017863D01*
X008611Y017873D01*
X008598Y017886D01*
X008588Y017900D01*
X008581Y017916D01*
X008577Y017933D01*
X008575Y017950D01*
X008575Y018550D01*
X008577Y018567D01*
X008581Y018584D01*
X008588Y018600D01*
X008598Y018614D01*
X008611Y018627D01*
X008625Y018637D01*
X008641Y018644D01*
X008658Y018648D01*
X008675Y018650D01*
X009225Y018250D02*
X009475Y018250D01*
X009475Y018500D01*
X009575Y018500D01*
X009475Y018250D02*
X009475Y018000D01*
X009475Y018250D02*
X009875Y018500D01*
X009875Y018000D01*
X009475Y018250D01*
X010075Y018250D01*
X010600Y016200D02*
X010550Y016150D01*
X008650Y016150D01*
X008600Y016200D01*
X008450Y016200D01*
X008433Y016198D01*
X008416Y016194D01*
X008400Y016187D01*
X008386Y016177D01*
X008373Y016164D01*
X008363Y016150D01*
X008356Y016134D01*
X008352Y016117D01*
X008350Y016100D01*
X008350Y015400D01*
X008352Y015383D01*
X008356Y015366D01*
X008363Y015350D01*
X008373Y015336D01*
X008386Y015323D01*
X008400Y015313D01*
X008416Y015306D01*
X008433Y015302D01*
X008450Y015300D01*
X008600Y015300D01*
X008650Y015350D01*
X010550Y015350D01*
X010600Y015300D01*
X010750Y015300D01*
X010767Y015302D01*
X010784Y015306D01*
X010800Y015313D01*
X010814Y015323D01*
X010827Y015336D01*
X010837Y015350D01*
X010844Y015366D01*
X010848Y015383D01*
X010850Y015400D01*
X010850Y016100D01*
X010848Y016117D01*
X010844Y016134D01*
X010837Y016150D01*
X010827Y016164D01*
X010814Y016177D01*
X010800Y016187D01*
X010784Y016194D01*
X010767Y016198D01*
X010750Y016200D01*
X010600Y016200D01*
X004925Y017975D02*
X004925Y018125D01*
X004875Y018175D01*
X004875Y020075D01*
X004925Y020125D01*
X004925Y020275D01*
X004923Y020292D01*
X004919Y020309D01*
X004912Y020325D01*
X004902Y020339D01*
X004889Y020352D01*
X004875Y020362D01*
X004859Y020369D01*
X004842Y020373D01*
X004825Y020375D01*
X004125Y020375D01*
X004108Y020373D01*
X004091Y020369D01*
X004075Y020362D01*
X004061Y020352D01*
X004048Y020339D01*
X004038Y020325D01*
X004031Y020309D01*
X004027Y020292D01*
X004025Y020275D01*
X004025Y020125D01*
X004075Y020075D01*
X004075Y018175D01*
X004025Y018125D01*
X004025Y017975D01*
X004027Y017958D01*
X004031Y017941D01*
X004038Y017925D01*
X004048Y017911D01*
X004061Y017898D01*
X004075Y017888D01*
X004091Y017881D01*
X004108Y017877D01*
X004125Y017875D01*
X004825Y017875D01*
X004842Y017877D01*
X004859Y017881D01*
X004875Y017888D01*
X004889Y017898D01*
X004902Y017911D01*
X004912Y017925D01*
X004919Y017941D01*
X004923Y017958D01*
X004925Y017975D01*
X002400Y020875D02*
X002650Y021125D01*
X002650Y021625D01*
X002400Y021875D01*
X002650Y022125D01*
X002650Y022625D01*
X002400Y022875D01*
X001900Y022875D01*
X001650Y022625D01*
X001650Y022125D01*
X001900Y021875D01*
X002400Y021875D01*
X001900Y021875D02*
X001650Y021625D01*
X001650Y021125D01*
X001900Y020875D01*
X002400Y020875D01*
X002400Y022875D02*
X002650Y023125D01*
X002650Y023625D01*
X002400Y023875D01*
X002650Y024125D01*
X002650Y024625D01*
X002400Y024875D01*
X002650Y025125D01*
X002650Y025625D01*
X002400Y025875D01*
X001900Y025875D01*
X001650Y025625D01*
X001650Y025125D01*
X001900Y024875D01*
X002400Y024875D01*
X001900Y024875D02*
X001650Y024625D01*
X001650Y024125D01*
X001900Y023875D01*
X002400Y023875D01*
X001900Y023875D02*
X001650Y023625D01*
X001650Y023125D01*
X001900Y022875D01*
X001900Y025875D02*
X001650Y026125D01*
X001650Y026625D01*
X001900Y026875D01*
X001650Y027125D01*
X001650Y027625D01*
X001900Y027875D01*
X001650Y028125D01*
X001650Y028625D01*
X001900Y028875D01*
X002400Y028875D01*
X002650Y028625D01*
X002650Y028125D01*
X002400Y027875D01*
X002650Y027625D01*
X002650Y027125D01*
X002400Y026875D01*
X002650Y026625D01*
X002650Y026125D01*
X002400Y025875D01*
X002400Y026875D02*
X001900Y026875D01*
X001900Y027875D02*
X002400Y027875D01*
X014075Y009200D02*
X014225Y009200D01*
X014275Y009150D01*
X016175Y009150D01*
X016225Y009200D01*
X016375Y009200D01*
X016392Y009198D01*
X016409Y009194D01*
X016425Y009187D01*
X016439Y009177D01*
X016452Y009164D01*
X016462Y009150D01*
X016469Y009134D01*
X016473Y009117D01*
X016475Y009100D01*
X016475Y008400D01*
X016473Y008383D01*
X016469Y008366D01*
X016462Y008350D01*
X016452Y008336D01*
X016439Y008323D01*
X016425Y008313D01*
X016409Y008306D01*
X016392Y008302D01*
X016375Y008300D01*
X016225Y008300D01*
X016175Y008350D01*
X014275Y008350D01*
X014225Y008300D01*
X014075Y008300D01*
X014058Y008302D01*
X014041Y008306D01*
X014025Y008313D01*
X014011Y008323D01*
X013998Y008336D01*
X013988Y008350D01*
X013981Y008366D01*
X013977Y008383D01*
X013975Y008400D01*
X013975Y009100D01*
X013977Y009117D01*
X013981Y009134D01*
X013988Y009150D01*
X013998Y009164D01*
X014011Y009177D01*
X014025Y009187D01*
X014041Y009194D01*
X014058Y009198D01*
X014075Y009200D01*
X022850Y004475D02*
X022850Y003775D01*
X022852Y003758D01*
X022856Y003741D01*
X022863Y003725D01*
X022873Y003711D01*
X022886Y003698D01*
X022900Y003688D01*
X022916Y003681D01*
X022933Y003677D01*
X022950Y003675D01*
X023100Y003675D01*
X023150Y003725D01*
X025050Y003725D01*
X025100Y003675D01*
X025250Y003675D01*
X025267Y003677D01*
X025284Y003681D01*
X025300Y003688D01*
X025314Y003698D01*
X025327Y003711D01*
X025337Y003725D01*
X025344Y003741D01*
X025348Y003758D01*
X025350Y003775D01*
X025350Y004475D01*
X025348Y004492D01*
X025344Y004509D01*
X025337Y004525D01*
X025327Y004539D01*
X025314Y004552D01*
X025300Y004562D01*
X025284Y004569D01*
X025267Y004573D01*
X025250Y004575D01*
X025100Y004575D01*
X025050Y004525D01*
X023150Y004525D01*
X023100Y004575D01*
X022950Y004575D01*
X022933Y004573D01*
X022916Y004569D01*
X022900Y004562D01*
X022886Y004552D01*
X022873Y004539D01*
X022863Y004525D01*
X022856Y004509D01*
X022852Y004492D01*
X022850Y004475D01*
X026850Y004625D02*
X026850Y004125D01*
X027100Y003875D01*
X028600Y003875D01*
X028850Y004125D01*
X028850Y004625D01*
X028600Y004875D01*
X027100Y004875D01*
X026850Y004625D01*
X027100Y004875D02*
X026850Y005125D01*
X026850Y005625D01*
X027100Y005875D01*
X028600Y005875D01*
X028850Y005625D01*
X028850Y005125D01*
X028600Y004875D01*
X029150Y005125D02*
X029150Y005625D01*
X029400Y005875D01*
X029150Y006125D01*
X029150Y006625D01*
X029400Y006875D01*
X029150Y007125D01*
X029150Y007625D01*
X029400Y007875D01*
X029150Y008125D01*
X029150Y008625D01*
X029400Y008875D01*
X029150Y009125D01*
X029150Y009625D01*
X029400Y009875D01*
X029150Y010125D01*
X029150Y010625D01*
X029400Y010875D01*
X029150Y011125D01*
X029150Y011625D01*
X029400Y011875D01*
X029900Y011875D01*
X030150Y011625D01*
X030150Y011125D01*
X029900Y010875D01*
X030150Y010625D01*
X030150Y010125D01*
X029900Y009875D01*
X029400Y009875D01*
X028850Y009625D02*
X028850Y009125D01*
X028600Y008875D01*
X027100Y008875D01*
X026850Y008625D01*
X026850Y008125D01*
X027100Y007875D01*
X028600Y007875D01*
X028850Y007625D01*
X028850Y007125D01*
X028600Y006875D01*
X027100Y006875D01*
X026850Y006625D01*
X026850Y006125D01*
X027100Y005875D01*
X027100Y006875D02*
X026850Y007125D01*
X026850Y007625D01*
X027100Y007875D01*
X027100Y008875D02*
X026850Y009125D01*
X026850Y009625D01*
X027100Y009875D01*
X028600Y009875D01*
X028850Y009625D01*
X028600Y009875D02*
X028850Y010125D01*
X028850Y010625D01*
X028600Y010875D01*
X027100Y010875D01*
X026850Y010625D01*
X026850Y010125D01*
X027100Y009875D01*
X027100Y010875D02*
X026850Y011125D01*
X026850Y011625D01*
X027100Y011875D01*
X028600Y011875D01*
X028850Y011625D01*
X028850Y011125D01*
X028600Y010875D01*
X029400Y010875D02*
X029900Y010875D01*
X029900Y009875D02*
X030150Y009625D01*
X030150Y009125D01*
X029900Y008875D01*
X030150Y008625D01*
X030150Y008125D01*
X029900Y007875D01*
X030150Y007625D01*
X030150Y007125D01*
X029900Y006875D01*
X029400Y006875D01*
X028850Y006625D02*
X028850Y006125D01*
X028600Y005875D01*
X028850Y006625D02*
X028600Y006875D01*
X028600Y007875D02*
X028850Y008125D01*
X028850Y008625D01*
X028600Y008875D01*
X029400Y008875D02*
X029900Y008875D01*
X029900Y007875D02*
X029400Y007875D01*
X029900Y006875D02*
X030150Y006625D01*
X030150Y006125D01*
X029900Y005875D01*
X030150Y005625D01*
X030150Y005125D01*
X029900Y004875D01*
X030150Y004625D01*
X030150Y004125D01*
X029900Y003875D01*
X029400Y003875D01*
X029150Y004125D01*
X029150Y004625D01*
X029400Y004875D01*
X029150Y005125D01*
X029400Y004875D02*
X029900Y004875D01*
X029900Y005875D02*
X029400Y005875D01*
D12*
X025215Y005225D02*
X024915Y004925D01*
X024990Y005000D02*
X025215Y004775D01*
X024915Y004775D02*
X024915Y005225D01*
X024604Y005225D02*
X024454Y005075D01*
X024604Y005225D02*
X024604Y004775D01*
X024454Y004775D02*
X024754Y004775D01*
X024629Y003500D02*
X024404Y003500D01*
X024404Y003050D01*
X024404Y003200D02*
X024629Y003200D01*
X024704Y003275D01*
X024704Y003425D01*
X024629Y003500D01*
X024865Y003425D02*
X024865Y003350D01*
X024940Y003275D01*
X025090Y003275D01*
X025165Y003200D01*
X025165Y003125D01*
X025090Y003050D01*
X024940Y003050D01*
X024865Y003125D01*
X024865Y003200D01*
X024940Y003275D01*
X025090Y003275D02*
X025165Y003350D01*
X025165Y003425D01*
X025090Y003500D01*
X024940Y003500D01*
X024865Y003425D01*
X024554Y003200D02*
X024704Y003050D01*
X022181Y004360D02*
X021881Y004360D01*
X022031Y004360D02*
X022031Y004810D01*
X021881Y004660D01*
X021721Y004735D02*
X021721Y004435D01*
X021646Y004360D01*
X021421Y004360D01*
X021421Y004810D01*
X021646Y004810D01*
X021721Y004735D01*
X021261Y004810D02*
X020960Y004810D01*
X020960Y004360D01*
X021261Y004360D01*
X021111Y004585D02*
X020960Y004585D01*
X020800Y004360D02*
X020500Y004360D01*
X020500Y004810D01*
X021779Y005675D02*
X021779Y006125D01*
X022004Y006125D01*
X022079Y006050D01*
X022079Y005900D01*
X022004Y005825D01*
X021779Y005825D01*
X021929Y005825D02*
X022079Y005675D01*
X022240Y005675D02*
X022540Y005675D01*
X022390Y005675D02*
X022390Y006125D01*
X022240Y005975D01*
X022290Y007400D02*
X022290Y007850D01*
X022365Y007625D02*
X022590Y007400D01*
X022290Y007550D02*
X022590Y007850D01*
X022717Y008350D02*
X022717Y008800D01*
X022492Y008575D01*
X022792Y008575D01*
X022952Y008575D02*
X023177Y008575D01*
X023252Y008500D01*
X023252Y008425D01*
X023177Y008350D01*
X023027Y008350D01*
X022952Y008425D01*
X022952Y008575D01*
X023102Y008725D01*
X023252Y008800D01*
X022331Y008575D02*
X022031Y008575D01*
X022256Y008800D01*
X022256Y008350D01*
X021871Y008575D02*
X021571Y008575D01*
X021796Y008800D01*
X021796Y008350D01*
X021979Y007850D02*
X021979Y007400D01*
X021829Y007400D02*
X022129Y007400D01*
X021829Y007700D02*
X021979Y007850D01*
X021411Y008350D02*
X021411Y008800D01*
X021110Y008800D02*
X021411Y008350D01*
X021110Y008350D02*
X021110Y008800D01*
X020800Y008800D02*
X020800Y008350D01*
X020650Y008350D02*
X020950Y008350D01*
X020650Y008650D02*
X020800Y008800D01*
X020875Y009900D02*
X020650Y009900D01*
X020650Y010350D01*
X020875Y010350D01*
X020950Y010275D01*
X020950Y009975D01*
X020875Y009900D01*
X021110Y009900D02*
X021411Y010200D01*
X021411Y010275D01*
X021336Y010350D01*
X021185Y010350D01*
X021110Y010275D01*
X021110Y009900D02*
X021411Y009900D01*
X021361Y010775D02*
X021060Y010775D01*
X021060Y010850D01*
X021361Y011150D01*
X021361Y011225D01*
X021060Y011225D01*
X020900Y011150D02*
X020900Y011075D01*
X020825Y011000D01*
X020600Y011000D01*
X020600Y010775D02*
X020600Y011225D01*
X020825Y011225D01*
X020900Y011150D01*
X020825Y011000D02*
X020900Y010925D01*
X020900Y010850D01*
X020825Y010775D01*
X020600Y010775D01*
X021521Y010775D02*
X021821Y011225D01*
X021981Y011225D02*
X021981Y011000D01*
X022131Y011075D01*
X022206Y011075D01*
X022281Y011000D01*
X022281Y010850D01*
X022206Y010775D01*
X022056Y010775D01*
X021981Y010850D01*
X021821Y010775D02*
X021521Y011225D01*
X021981Y011225D02*
X022281Y011225D01*
X022442Y011225D02*
X022442Y011000D01*
X022592Y011075D01*
X022667Y011075D01*
X022742Y011000D01*
X022742Y010850D01*
X022667Y010775D01*
X022517Y010775D01*
X022442Y010850D01*
X022442Y011225D02*
X022742Y011225D01*
X021361Y012350D02*
X021286Y012275D01*
X021135Y012275D01*
X021060Y012350D01*
X021060Y012500D02*
X021211Y012575D01*
X021286Y012575D01*
X021361Y012500D01*
X021361Y012350D01*
X021060Y012500D02*
X021060Y012725D01*
X021361Y012725D01*
X021361Y013150D02*
X021060Y013150D01*
X021060Y013225D01*
X021361Y013525D01*
X021361Y013600D01*
X021060Y013600D01*
X020900Y013525D02*
X020900Y013450D01*
X020825Y013375D01*
X020600Y013375D01*
X020600Y013150D02*
X020825Y013150D01*
X020900Y013225D01*
X020900Y013300D01*
X020825Y013375D01*
X020900Y013525D02*
X020825Y013600D01*
X020600Y013600D01*
X020600Y013150D01*
X020600Y012725D02*
X020825Y012725D01*
X020900Y012650D01*
X020900Y012350D01*
X020825Y012275D01*
X020600Y012275D01*
X020600Y012725D01*
X021521Y013150D02*
X021821Y013600D01*
X021981Y013600D02*
X021981Y013375D01*
X022131Y013450D01*
X022206Y013450D01*
X022281Y013375D01*
X022281Y013225D01*
X022206Y013150D01*
X022056Y013150D01*
X021981Y013225D01*
X021821Y013150D02*
X021521Y013600D01*
X021981Y013600D02*
X022281Y013600D01*
X022442Y013600D02*
X022442Y013375D01*
X022592Y013450D01*
X022667Y013450D01*
X022742Y013375D01*
X022742Y013225D01*
X022667Y013150D01*
X022517Y013150D01*
X022442Y013225D01*
X022442Y013600D02*
X022742Y013600D01*
X021286Y014650D02*
X021286Y015100D01*
X021060Y014875D01*
X021361Y014875D01*
X020900Y014725D02*
X020900Y015025D01*
X020825Y015100D01*
X020600Y015100D01*
X020600Y014650D01*
X020825Y014650D01*
X020900Y014725D01*
X021875Y016354D02*
X021875Y016579D01*
X021950Y016654D01*
X022025Y016654D01*
X022100Y016579D01*
X022100Y016354D01*
X022325Y016354D02*
X022325Y016579D01*
X022250Y016654D01*
X022175Y016654D01*
X022100Y016579D01*
X022175Y016815D02*
X022175Y017040D01*
X022100Y017115D01*
X021950Y017115D01*
X021875Y017040D01*
X021875Y016815D01*
X022325Y016815D01*
X022325Y016354D02*
X021875Y016354D01*
X023625Y016429D02*
X023700Y016354D01*
X024000Y016354D01*
X024075Y016429D01*
X024075Y016579D01*
X024000Y016654D01*
X024200Y016719D02*
X024425Y016494D01*
X024425Y016794D01*
X024425Y016954D02*
X024425Y017254D01*
X024425Y017415D02*
X024275Y017565D01*
X024200Y017715D01*
X024425Y017640D02*
X024425Y017415D01*
X024575Y017415D01*
X024650Y017490D01*
X024650Y017640D01*
X024575Y017715D01*
X024500Y017715D01*
X024425Y017640D01*
X024650Y017179D02*
X024200Y017179D01*
X024425Y016954D01*
X024650Y016719D02*
X024200Y016719D01*
X024075Y017040D02*
X023625Y017040D01*
X023850Y016815D01*
X023850Y017115D01*
X023700Y016654D02*
X023625Y016579D01*
X023625Y016429D01*
X024200Y016259D02*
X024425Y016033D01*
X024425Y016334D01*
X024650Y016259D02*
X024200Y016259D01*
X024200Y015873D02*
X024650Y015873D01*
X024200Y015573D01*
X024650Y015573D01*
X024650Y015413D02*
X024650Y015113D01*
X024650Y015263D02*
X024200Y015263D01*
X024350Y015113D01*
X025750Y016954D02*
X025750Y017179D01*
X025825Y017254D01*
X026125Y017254D01*
X026200Y017179D01*
X026200Y016954D01*
X025750Y016954D01*
X025900Y017415D02*
X025750Y017565D01*
X026200Y017565D01*
X026200Y017415D02*
X026200Y017715D01*
X022702Y020625D02*
X022627Y020550D01*
X022402Y020550D01*
X022402Y020400D02*
X022402Y020850D01*
X022627Y020850D01*
X022702Y020775D01*
X022702Y020625D01*
X022242Y020400D02*
X021942Y020400D01*
X022092Y020400D02*
X022092Y020850D01*
X021942Y020700D01*
X021781Y020625D02*
X021481Y020625D01*
X021706Y020850D01*
X021706Y020400D01*
X021321Y020775D02*
X021021Y020475D01*
X021021Y020400D01*
X020861Y020400D02*
X020861Y020850D01*
X020711Y020700D01*
X020560Y020850D01*
X020560Y020400D01*
X020400Y020400D02*
X020100Y020400D01*
X020100Y020850D01*
X019350Y020493D02*
X019350Y020342D01*
X019275Y020267D01*
X019275Y020107D02*
X019350Y020032D01*
X019350Y019882D01*
X019275Y019807D01*
X018975Y019807D01*
X018900Y019882D01*
X018900Y020032D01*
X018975Y020107D01*
X018975Y020267D02*
X018900Y020342D01*
X018900Y020493D01*
X018975Y020568D01*
X019050Y020568D01*
X019125Y020493D01*
X019200Y020568D01*
X019275Y020568D01*
X019350Y020493D01*
X019125Y020493D02*
X019125Y020417D01*
X019350Y019650D02*
X019350Y019500D01*
X019350Y019575D02*
X018900Y019575D01*
X018900Y019500D02*
X018900Y019650D01*
X021021Y020850D02*
X021321Y020850D01*
X021321Y020775D01*
X021265Y023150D02*
X021115Y023150D01*
X021040Y023225D01*
X020879Y023225D02*
X020804Y023150D01*
X020654Y023150D01*
X020579Y023225D01*
X020579Y023525D01*
X020654Y023600D01*
X020804Y023600D01*
X020879Y023525D01*
X021040Y023525D02*
X021115Y023600D01*
X021265Y023600D01*
X021340Y023525D01*
X021340Y023450D01*
X021265Y023375D01*
X021340Y023300D01*
X021340Y023225D01*
X021265Y023150D01*
X021265Y023375D02*
X021190Y023375D01*
X021040Y024900D02*
X021040Y025350D01*
X021265Y025350D01*
X021340Y025275D01*
X021340Y025125D01*
X021265Y025050D01*
X021040Y025050D01*
X020879Y025050D02*
X020879Y024975D01*
X020804Y024900D01*
X020579Y024900D01*
X020579Y025350D01*
X020804Y025350D01*
X020879Y025275D01*
X020879Y025200D01*
X020804Y025125D01*
X020579Y025125D01*
X020804Y025125D02*
X020879Y025050D01*
X021275Y025875D02*
X021275Y026025D01*
X021275Y025950D02*
X021725Y025950D01*
X021725Y025875D02*
X021725Y026025D01*
X021650Y026182D02*
X021725Y026257D01*
X021725Y026407D01*
X021650Y026482D01*
X021725Y026642D02*
X021425Y026943D01*
X021350Y026943D01*
X021275Y026868D01*
X021275Y026717D01*
X021350Y026642D01*
X021350Y026482D02*
X021275Y026407D01*
X021275Y026257D01*
X021350Y026182D01*
X021650Y026182D01*
X021725Y026642D02*
X021725Y026943D01*
X022475Y026775D02*
X022775Y026775D01*
X022935Y026775D02*
X022935Y027225D01*
X023086Y027075D01*
X023236Y027225D01*
X023236Y026775D01*
X023396Y026775D02*
X023396Y026850D01*
X023696Y027150D01*
X023696Y027225D01*
X023396Y027225D01*
X023856Y027000D02*
X024156Y027000D01*
X024317Y027075D02*
X024467Y027225D01*
X024467Y026775D01*
X024317Y026775D02*
X024617Y026775D01*
X024777Y026775D02*
X024777Y027225D01*
X025002Y027225D01*
X025077Y027150D01*
X025077Y027000D01*
X025002Y026925D01*
X024777Y026925D01*
X024081Y026775D02*
X024081Y027225D01*
X023856Y027000D01*
X022475Y027225D02*
X022475Y026775D01*
X026275Y026761D02*
X026275Y026610D01*
X026350Y026535D01*
X026350Y026375D02*
X026500Y026375D01*
X026575Y026300D01*
X026575Y026075D01*
X026725Y026075D02*
X026275Y026075D01*
X026275Y026300D01*
X026350Y026375D01*
X026575Y026225D02*
X026725Y026375D01*
X026725Y026535D02*
X026425Y026836D01*
X026350Y026836D01*
X026275Y026761D01*
X026725Y026836D02*
X026725Y026535D01*
X028000Y026485D02*
X028450Y026485D01*
X028300Y026485D02*
X028000Y026786D01*
X028225Y026560D02*
X028450Y026786D01*
X028450Y026325D02*
X028450Y026025D01*
X028450Y026175D02*
X028000Y026175D01*
X028150Y026025D01*
X029345Y029070D02*
X029345Y029520D01*
X029345Y029295D02*
X029645Y029295D01*
X029805Y029145D02*
X029880Y029070D01*
X030031Y029070D01*
X030106Y029145D01*
X030106Y029220D01*
X030031Y029295D01*
X029956Y029295D01*
X030031Y029295D02*
X030106Y029370D01*
X030106Y029445D01*
X030031Y029520D01*
X029880Y029520D01*
X029805Y029445D01*
X029645Y029520D02*
X029645Y029070D01*
X029645Y012620D02*
X029645Y012170D01*
X029645Y012395D02*
X029345Y012395D01*
X029345Y012170D02*
X029345Y012620D01*
X029805Y012395D02*
X030106Y012395D01*
X030031Y012170D02*
X030031Y012620D01*
X029805Y012395D01*
X017325Y004290D02*
X017325Y004140D01*
X017250Y004065D01*
X017100Y004065D02*
X017025Y004215D01*
X017025Y004290D01*
X017100Y004365D01*
X017250Y004365D01*
X017325Y004290D01*
X017100Y004065D02*
X016875Y004065D01*
X016875Y004365D01*
X016950Y003904D02*
X017100Y003904D01*
X017175Y003829D01*
X017175Y003604D01*
X017325Y003604D02*
X016875Y003604D01*
X016875Y003829D01*
X016950Y003904D01*
X016875Y003444D02*
X016875Y003294D01*
X016875Y003369D02*
X017250Y003369D01*
X017325Y003294D01*
X017325Y003219D01*
X017250Y003144D01*
X013075Y003219D02*
X013000Y003144D01*
X013075Y003219D02*
X013075Y003294D01*
X013000Y003369D01*
X012625Y003369D01*
X012625Y003294D02*
X012625Y003444D01*
X012625Y003604D02*
X012625Y003829D01*
X012700Y003904D01*
X012850Y003904D01*
X012925Y003829D01*
X012925Y003604D01*
X013075Y003604D02*
X012625Y003604D01*
X012850Y004065D02*
X012850Y004365D01*
X013075Y004290D02*
X012625Y004290D01*
X012850Y004065D01*
X011615Y005800D02*
X011615Y005875D01*
X011915Y006175D01*
X011915Y006250D01*
X011615Y006250D01*
X011454Y006175D02*
X011454Y006025D01*
X011379Y005950D01*
X011154Y005950D01*
X011154Y005800D02*
X011154Y006250D01*
X011379Y006250D01*
X011454Y006175D01*
X011304Y005950D02*
X011454Y005800D01*
X011504Y007525D02*
X011204Y007525D01*
X011354Y007525D02*
X011354Y007975D01*
X011204Y007825D01*
X011665Y007675D02*
X011965Y007975D01*
X011665Y007975D02*
X011665Y007525D01*
X011740Y007750D02*
X011965Y007525D01*
X014000Y007650D02*
X014300Y007650D01*
X014150Y007650D02*
X014150Y008100D01*
X014000Y007950D01*
X014460Y007800D02*
X014761Y008100D01*
X014460Y008100D02*
X014460Y007650D01*
X014535Y007875D02*
X014761Y007650D01*
X014736Y009375D02*
X014585Y009375D01*
X014510Y009450D01*
X014350Y009375D02*
X014200Y009525D01*
X014275Y009525D02*
X014050Y009525D01*
X014050Y009375D02*
X014050Y009825D01*
X014275Y009825D01*
X014350Y009750D01*
X014350Y009600D01*
X014275Y009525D01*
X014510Y009750D02*
X014585Y009825D01*
X014736Y009825D01*
X014811Y009750D01*
X014811Y009675D01*
X014736Y009600D01*
X014811Y009525D01*
X014811Y009450D01*
X014736Y009375D01*
X014736Y009600D02*
X014661Y009600D01*
X010665Y010125D02*
X010665Y010200D01*
X010590Y010275D01*
X010365Y010275D01*
X010365Y010125D01*
X010440Y010050D01*
X010590Y010050D01*
X010665Y010125D01*
X010515Y010425D02*
X010365Y010275D01*
X010204Y010275D02*
X010204Y010425D01*
X010129Y010500D01*
X009904Y010500D01*
X009904Y010050D01*
X009904Y010200D02*
X010129Y010200D01*
X010204Y010275D01*
X010054Y010200D02*
X010204Y010050D01*
X010515Y010425D02*
X010665Y010500D01*
X010715Y011775D02*
X010490Y012000D01*
X010415Y011925D02*
X010715Y012225D01*
X010415Y012225D02*
X010415Y011775D01*
X010254Y011775D02*
X009954Y011775D01*
X010104Y011775D02*
X010104Y012225D01*
X009954Y012075D01*
X009136Y012150D02*
X008910Y012375D01*
X008835Y012300D02*
X009136Y012600D01*
X008835Y012600D02*
X008835Y012150D01*
X008675Y012150D02*
X008375Y012150D01*
X008525Y012150D02*
X008525Y012600D01*
X008375Y012450D01*
X008425Y013875D02*
X008425Y014325D01*
X008650Y014325D01*
X008725Y014250D01*
X008725Y014100D01*
X008650Y014025D01*
X008425Y014025D01*
X008575Y014025D02*
X008725Y013875D01*
X008885Y013875D02*
X009186Y013875D01*
X009036Y013875D02*
X009036Y014325D01*
X008885Y014175D01*
X008835Y014650D02*
X008835Y015100D01*
X008910Y014875D02*
X009136Y014650D01*
X008835Y014800D02*
X009136Y015100D01*
X008525Y015100D02*
X008525Y014650D01*
X008375Y014650D02*
X008675Y014650D01*
X008375Y014950D02*
X008525Y015100D01*
X009346Y014175D02*
X009496Y014325D01*
X009496Y013875D01*
X009346Y013875D02*
X009646Y013875D01*
X009571Y016375D02*
X009421Y016375D01*
X009346Y016450D01*
X009646Y016750D01*
X009646Y016450D01*
X009571Y016375D01*
X009346Y016450D02*
X009346Y016750D01*
X009421Y016825D01*
X009571Y016825D01*
X009646Y016750D01*
X009521Y017275D02*
X009821Y017725D01*
X009981Y017725D02*
X009981Y017500D01*
X010131Y017575D01*
X010206Y017575D01*
X010281Y017500D01*
X010281Y017350D01*
X010206Y017275D01*
X010056Y017275D01*
X009981Y017350D01*
X009821Y017275D02*
X009521Y017725D01*
X009361Y017725D02*
X009361Y017650D01*
X009060Y017350D01*
X009060Y017275D01*
X009361Y017275D01*
X009036Y016825D02*
X009036Y016375D01*
X009186Y016375D02*
X008885Y016375D01*
X008725Y016375D02*
X008575Y016525D01*
X008650Y016525D02*
X008425Y016525D01*
X008425Y016375D02*
X008425Y016825D01*
X008650Y016825D01*
X008725Y016750D01*
X008725Y016600D01*
X008650Y016525D01*
X008885Y016675D02*
X009036Y016825D01*
X008825Y017275D02*
X008600Y017275D01*
X008600Y017725D01*
X008825Y017725D01*
X008900Y017650D01*
X008900Y017575D01*
X008825Y017500D01*
X008600Y017500D01*
X008825Y017500D02*
X008900Y017425D01*
X008900Y017350D01*
X008825Y017275D01*
X009060Y017725D02*
X009361Y017725D01*
X009981Y017725D02*
X010281Y017725D01*
X010442Y017725D02*
X010442Y017500D01*
X010592Y017575D01*
X010667Y017575D01*
X010742Y017500D01*
X010742Y017350D01*
X010667Y017275D01*
X010517Y017275D01*
X010442Y017350D01*
X010442Y017725D02*
X010742Y017725D01*
X009361Y018850D02*
X009286Y018775D01*
X009135Y018775D01*
X009060Y018850D01*
X008900Y018850D02*
X008900Y019150D01*
X008825Y019225D01*
X008600Y019225D01*
X008600Y018775D01*
X008825Y018775D01*
X008900Y018850D01*
X009060Y019150D02*
X009135Y019225D01*
X009286Y019225D01*
X009361Y019150D01*
X009361Y019075D01*
X009286Y019000D01*
X009361Y018925D01*
X009361Y018850D01*
X009286Y019000D02*
X009211Y019000D01*
X009575Y021104D02*
X009875Y021104D01*
X009950Y021179D01*
X009950Y021329D01*
X009875Y021404D01*
X009950Y021565D02*
X009650Y021865D01*
X009575Y021865D01*
X009500Y021790D01*
X009500Y021640D01*
X009575Y021565D01*
X009575Y021404D02*
X009500Y021329D01*
X009500Y021179D01*
X009575Y021104D01*
X009950Y021565D02*
X009950Y021865D01*
X010375Y021790D02*
X010450Y021865D01*
X010600Y021865D01*
X010675Y021790D01*
X010675Y021565D01*
X010825Y021565D02*
X010375Y021565D01*
X010375Y021790D01*
X010450Y021404D02*
X010525Y021404D01*
X010600Y021329D01*
X010600Y021104D01*
X010825Y021104D02*
X010825Y021329D01*
X010750Y021404D01*
X010675Y021404D01*
X010600Y021329D01*
X010450Y021404D02*
X010375Y021329D01*
X010375Y021104D01*
X010825Y021104D01*
X012125Y021179D02*
X012200Y021104D01*
X012500Y021104D01*
X012575Y021179D01*
X012575Y021329D01*
X012500Y021404D01*
X012575Y021565D02*
X012575Y021865D01*
X012575Y021715D02*
X012125Y021715D01*
X012275Y021565D01*
X012200Y021404D02*
X012125Y021329D01*
X012125Y021179D01*
X008200Y021104D02*
X008200Y021329D01*
X008125Y021404D01*
X008050Y021404D01*
X007975Y021329D01*
X007975Y021104D01*
X008200Y021104D02*
X007750Y021104D01*
X007750Y021329D01*
X007825Y021404D01*
X007900Y021404D01*
X007975Y021329D01*
X008050Y021565D02*
X008050Y021790D01*
X007975Y021865D01*
X007825Y021865D01*
X007750Y021790D01*
X007750Y021565D01*
X008200Y021565D01*
X005575Y018661D02*
X005350Y018435D01*
X005425Y018360D02*
X005125Y018661D01*
X005125Y018360D02*
X005575Y018360D01*
X005575Y018200D02*
X005575Y017900D01*
X005575Y018050D02*
X005125Y018050D01*
X005275Y017900D01*
X003850Y017950D02*
X003400Y017950D01*
X003400Y018175D01*
X003475Y018250D01*
X003625Y018250D01*
X003700Y018175D01*
X003700Y017950D01*
X003700Y018100D02*
X003850Y018250D01*
X003775Y018410D02*
X003850Y018485D01*
X003850Y018636D01*
X003775Y018711D01*
X003475Y018711D01*
X003400Y018636D01*
X003400Y018485D01*
X003475Y018410D01*
X003550Y018410D01*
X003625Y018485D01*
X003625Y018711D01*
X003825Y014615D02*
X003600Y014390D01*
X003675Y014315D02*
X003375Y014615D01*
X003375Y014315D02*
X003825Y014315D01*
X003825Y014154D02*
X003825Y013854D01*
X003825Y014004D02*
X003375Y014004D01*
X003525Y013854D01*
X005100Y013804D02*
X005100Y014029D01*
X005175Y014104D01*
X005325Y014104D01*
X005400Y014029D01*
X005400Y013804D01*
X005550Y013804D02*
X005100Y013804D01*
X005400Y013954D02*
X005550Y014104D01*
X005475Y014265D02*
X005550Y014340D01*
X005550Y014490D01*
X005475Y014565D01*
X005325Y014565D01*
X005250Y014490D01*
X005250Y014415D01*
X005325Y014265D01*
X005100Y014265D01*
X005100Y014565D01*
X002606Y012445D02*
X002531Y012520D01*
X002380Y012520D01*
X002305Y012445D01*
X002145Y012520D02*
X002145Y012070D01*
X002305Y012070D02*
X002606Y012370D01*
X002606Y012445D01*
X002606Y012070D02*
X002305Y012070D01*
X002145Y012295D02*
X001845Y012295D01*
X001845Y012070D02*
X001845Y012520D01*
X008425Y009825D02*
X008425Y009375D01*
X008425Y009525D02*
X008650Y009525D01*
X008725Y009600D01*
X008725Y009750D01*
X008650Y009825D01*
X008425Y009825D01*
X008575Y009525D02*
X008725Y009375D01*
X008885Y009600D02*
X009186Y009600D01*
X009111Y009375D02*
X009111Y009825D01*
X008885Y009600D01*
X008835Y008100D02*
X008835Y007650D01*
X008835Y007800D02*
X009136Y008100D01*
X008910Y007875D02*
X009136Y007650D01*
X008675Y007650D02*
X008375Y007650D01*
X008525Y007650D02*
X008525Y008100D01*
X008375Y007950D01*
X002606Y029070D02*
X002305Y029070D01*
X002456Y029070D02*
X002456Y029520D01*
X002305Y029370D01*
X002145Y029295D02*
X001845Y029295D01*
X001845Y029070D02*
X001845Y029520D01*
X002145Y029520D02*
X002145Y029070D01*
X010895Y031345D02*
X010895Y031795D01*
X010895Y031570D02*
X011195Y031570D01*
X011355Y031570D02*
X011506Y031645D01*
X011581Y031645D01*
X011656Y031570D01*
X011656Y031420D01*
X011581Y031345D01*
X011430Y031345D01*
X011355Y031420D01*
X011355Y031570D02*
X011355Y031795D01*
X011656Y031795D01*
X011195Y031795D02*
X011195Y031345D01*
D13*
X015540Y017948D02*
X015750Y017948D01*
X015855Y017843D01*
X015855Y017527D01*
X016065Y017527D02*
X015434Y017527D01*
X015434Y017843D01*
X015540Y017948D01*
X015750Y017303D02*
X015750Y016883D01*
X015855Y016659D02*
X015960Y016659D01*
X016065Y016553D01*
X016065Y016343D01*
X015960Y016238D01*
X015855Y016238D01*
X015750Y016343D01*
X015750Y016553D01*
X015855Y016659D01*
X015750Y016553D02*
X015645Y016659D01*
X015540Y016659D01*
X015434Y016553D01*
X015434Y016343D01*
X015540Y016238D01*
X015645Y016238D01*
X015750Y016343D01*
X015750Y016014D02*
X015750Y015594D01*
X015645Y015594D02*
X015434Y015804D01*
X015645Y016014D01*
X016065Y016014D01*
X016065Y015594D02*
X015645Y015594D01*
X015750Y015369D02*
X015750Y015159D01*
X015750Y015369D02*
X015960Y015369D01*
X016065Y015264D01*
X016065Y015054D01*
X015960Y014949D01*
X015540Y014949D01*
X015434Y015054D01*
X015434Y015264D01*
X015540Y015369D01*
X015434Y014725D02*
X015434Y014305D01*
X016065Y014305D01*
X016065Y014725D01*
X015750Y014515D02*
X015750Y014305D01*
X015434Y014080D02*
X016065Y014080D01*
X016065Y013660D02*
X015434Y013660D01*
X015645Y013870D01*
X015434Y014080D01*
X015376Y012281D02*
X015166Y012281D01*
X015271Y012281D02*
X015271Y011650D01*
X015166Y011650D02*
X015376Y011650D01*
X015596Y011755D02*
X015701Y011650D01*
X015911Y011650D01*
X016016Y011755D01*
X016240Y011650D02*
X016661Y011650D01*
X016451Y011650D02*
X016451Y012281D01*
X016240Y012070D01*
X016016Y012175D02*
X015911Y012281D01*
X015701Y012281D01*
X015596Y012175D01*
X015596Y011755D01*
D14*
X016645Y008750D03*
X013805Y008750D03*
X012270Y006875D03*
X011020Y008750D03*
X009430Y006875D03*
X008180Y008750D03*
X008180Y011125D03*
X008180Y013250D03*
X008180Y015750D03*
X011020Y015750D03*
X011020Y013250D03*
X011020Y011125D03*
X020055Y006750D03*
X022895Y006750D03*
X022680Y004125D03*
X025520Y004125D03*
D15*
X004475Y012080D03*
X004475Y014920D03*
X004475Y017705D03*
X004475Y020545D03*
X027350Y025830D03*
X027350Y028670D03*
D16*
X020575Y024550D02*
X020575Y024250D01*
X020575Y023950D01*
X020375Y023950D02*
X020375Y024250D01*
X020375Y024550D01*
X022675Y016350D02*
X022975Y016350D01*
X023275Y016350D01*
X023275Y016150D02*
X022975Y016150D01*
X022675Y016150D01*
X011775Y020900D02*
X011475Y020900D01*
X011175Y020900D01*
X011175Y021100D02*
X011475Y021100D01*
X011775Y021100D01*
X009150Y021100D02*
X008850Y021100D01*
X008550Y021100D01*
X008550Y020900D02*
X008850Y020900D01*
X009150Y020900D01*
X020225Y004875D02*
X020182Y004929D01*
X020136Y004981D01*
X020087Y005030D01*
X020035Y005077D01*
X019981Y005120D01*
X019925Y005161D01*
X019866Y005198D01*
X019806Y005232D01*
X019743Y005262D01*
X019680Y005289D01*
X019614Y005313D01*
X019548Y005333D01*
X019480Y005349D01*
X019412Y005361D01*
X019343Y005369D01*
X019274Y005374D01*
X019204Y005375D01*
X019135Y005372D01*
X019066Y005365D01*
X018998Y005354D01*
X018930Y005340D01*
X018863Y005321D01*
X018797Y005299D01*
X018732Y005274D01*
X018669Y005245D01*
X018608Y005212D01*
X018549Y005176D01*
X018492Y005137D01*
X018436Y005095D01*
X018384Y005050D01*
X018334Y005002D01*
X018287Y004951D01*
X018242Y004897D01*
X018201Y004842D01*
X018163Y004784D01*
X018128Y004724D01*
X018096Y004662D01*
X018068Y004599D01*
X018044Y004534D01*
X018023Y004468D01*
X018006Y004400D01*
X017992Y004332D01*
X017983Y004263D01*
X017977Y004194D01*
X017975Y004125D01*
X017977Y004056D01*
X017983Y003987D01*
X017992Y003918D01*
X018006Y003850D01*
X018023Y003782D01*
X018044Y003716D01*
X018068Y003651D01*
X018096Y003588D01*
X018128Y003526D01*
X018163Y003466D01*
X018201Y003408D01*
X018242Y003353D01*
X018287Y003299D01*
X018334Y003248D01*
X018384Y003200D01*
X018436Y003155D01*
X018492Y003113D01*
X018549Y003074D01*
X018608Y003038D01*
X018669Y003005D01*
X018732Y002976D01*
X018797Y002951D01*
X018863Y002929D01*
X018930Y002910D01*
X018998Y002896D01*
X019066Y002885D01*
X019135Y002878D01*
X019204Y002875D01*
X019274Y002876D01*
X019343Y002881D01*
X019412Y002889D01*
X019480Y002901D01*
X019548Y002917D01*
X019614Y002937D01*
X019680Y002961D01*
X019743Y002988D01*
X019806Y003018D01*
X019866Y003052D01*
X019925Y003089D01*
X019981Y003130D01*
X020035Y003173D01*
X020087Y003220D01*
X020136Y003269D01*
X020182Y003321D01*
X020225Y003375D01*
D17*
X016100Y002500D02*
X016100Y000250D01*
X015100Y000250D02*
X015100Y002500D01*
X011850Y002500D02*
X011850Y000250D01*
X010850Y000250D02*
X010850Y002500D01*
X009850Y002500D02*
X009850Y000250D01*
X008850Y000250D02*
X008850Y002500D01*
D18*
X008850Y002650D03*
X009850Y002650D03*
X010850Y002650D03*
X011850Y002650D03*
X015100Y002650D03*
X016100Y002650D03*
D19*
X016100Y003950D03*
X015100Y003950D03*
X011850Y003950D03*
X010850Y003950D03*
X009850Y003950D03*
X008850Y003950D03*
D20*
X025225Y017650D03*
D21*
X025225Y018275D03*
X025225Y015725D03*
D22*
X020825Y014125D03*
X020825Y011750D03*
X020825Y009375D03*
X008825Y018250D03*
D23*
X008200Y018250D03*
X010750Y018250D03*
X020200Y014125D03*
X020200Y011750D03*
X020200Y009375D03*
X022750Y009375D03*
X022750Y011750D03*
X022750Y014125D03*
D24*
X020225Y004875D02*
X020225Y003375D01*
M02*
